<svg width="114" height="81" viewBox="0 0 114 81" fill="none" xmlns="http://www.w3.org/2000/svg">
<g clip-path="url(#clip0_27_8762)">
<mask id="mask0_27_8762" style="mask-type:luminance" maskUnits="userSpaceOnUse" x="0" y="0" width="114" height="81">
<path d="M114 0H0V81H114V0Z" fill="white"/>
</mask>
<g mask="url(#mask0_27_8762)">
<path d="M40.0486 47.7206H33.2846C26.3228 47.7206 20.6667 54.4663 20.6667 61.8922L52.6882 61.9026C52.6882 54.4767 47.0104 47.7206 40.0486 47.7206Z" fill="#7BB374"/>
<path d="M41.8336 54.2785C42.7533 53.2846 43.3044 52.0202 43.3044 50.6434C43.3044 47.445 40.3326 44.8521 36.6668 44.8521C33.001 44.8521 30.0293 47.445 30.0293 50.6434C30.0293 52.0202 30.5804 53.2846 31.5001 54.2785" fill="#2F8F44"/>
<path d="M36.6667 51.8744C34.8555 51.8744 33.3873 50.3083 33.3873 48.3764L33.1958 41.2539C33.1958 39.322 34.6641 37.7557 36.4752 37.7557L36.5913 37.7805C38.4025 37.7805 39.7547 39.322 39.7547 41.2539L39.9462 48.3764C39.9462 50.3083 38.4779 51.8744 36.6667 51.8744Z" fill="#603129"/>
<path d="M36.6314 44.1131H36.3696C30.0017 44.1131 24.8394 38.6067 24.8394 31.8142V23.9492C24.8394 18.0016 29.3596 13.18 34.9356 13.18H38.0654C43.6414 13.18 48.1616 18.0016 48.1616 23.9492V31.8142C48.1616 38.6067 42.9993 44.1131 36.6314 44.1131Z" fill="#0F0400"/>
<path d="M23.0422 31.5805C23.0422 32.6743 23.8735 33.561 24.8989 33.561C25.9244 33.561 26.7556 32.6743 26.7556 31.5805C26.7556 30.4867 25.9244 29.6001 24.8989 29.6001C23.8735 29.6001 23.0422 30.4867 23.0422 31.5805Z" fill="#0F0400"/>
<path d="M31.4902 13.1624C31.4902 14.2562 32.3215 15.1429 33.3469 15.1429C34.3724 15.1429 35.2036 14.2562 35.2036 13.1624C35.2036 12.0686 34.3724 11.182 33.3469 11.182C32.3215 11.182 31.4902 12.0686 31.4902 13.1624Z" fill="#0F0400"/>
<path d="M28.0552 14.4497C28.0552 15.5435 28.8864 16.4302 29.9119 16.4302C30.9373 16.4302 31.7685 15.5435 31.7685 14.4497C31.7685 13.3559 30.9373 12.4693 29.9119 12.4693C28.8864 12.4693 28.0552 13.3559 28.0552 14.4497Z" fill="#0F0400"/>
<path d="M25.2703 17.0243C25.2703 18.1181 26.1015 19.0048 27.1269 19.0048C28.1524 19.0048 28.9836 18.1181 28.9836 17.0243C28.9836 15.9305 28.1524 15.0439 27.1269 15.0439C26.1015 15.0439 25.2703 15.9305 25.2703 17.0243Z" fill="#0F0400"/>
<path d="M23.5063 20.391C23.5063 21.4848 24.3376 22.3715 25.363 22.3715C26.3885 22.3715 27.2197 21.4848 27.2197 20.391C27.2197 19.2972 26.3885 18.4106 25.363 18.4106C24.3376 18.4106 23.5063 19.2972 23.5063 20.391Z" fill="#0F0400"/>
<path d="M23.0422 24.1539C23.0422 25.2477 23.8735 26.1343 24.8989 26.1343C25.9244 26.1343 26.7556 25.2477 26.7556 24.1539C26.7556 23.0601 25.9244 22.1735 24.8989 22.1735C23.8735 22.1735 23.0422 23.0601 23.0422 24.1539Z" fill="#0F0400"/>
<path d="M23.0422 27.7187C23.0422 28.8125 23.8735 29.6991 24.8989 29.6991C25.9244 29.6991 26.7556 28.8125 26.7556 27.7187C26.7556 26.6249 25.9244 25.7382 24.8989 25.7382C23.8735 25.7382 23.0422 26.6249 23.0422 27.7187Z" fill="#0F0400"/>
<path d="M50.0569 31.7786C50.0569 32.8724 49.2256 33.759 48.2002 33.759C47.1747 33.759 46.3435 32.8724 46.3435 31.7786C46.3435 30.6848 47.1747 29.7982 48.2002 29.7982C49.2256 29.7982 50.0569 30.6848 50.0569 31.7786Z" fill="#0F0400"/>
<path d="M35.1885 44.1131H37.8126C43.1842 44.1131 47.5995 39.7478 48.1117 34.1617H24.8894C25.4017 39.7478 29.8169 44.1131 35.1885 44.1131Z" fill="#0F0400"/>
<path d="M31.1202 34.6026C31.1202 36.7157 29.5142 38.4286 27.5332 38.4286C25.5522 38.4286 23.9463 36.7157 23.9463 34.6026C23.9463 32.4896 25.5522 30.7766 27.5332 30.7766C29.5142 30.7766 31.1202 32.4896 31.1202 34.6026Z" fill="#7F4A3D"/>
<path d="M49.0548 34.6026C49.0548 36.7157 47.4488 38.4286 45.4679 38.4286C43.4869 38.4286 41.8809 36.7157 41.8809 34.6026C41.8809 32.4896 43.4869 30.7766 45.4679 30.7766C47.4488 30.7766 49.0548 32.4896 49.0548 34.6026Z" fill="#7F4A3D"/>
<path d="M44.4054 35.8051H28.5959C27.2758 35.8051 26.2056 34.6636 26.2056 33.2554V20.7418C26.2056 19.3336 27.2758 18.1921 28.5959 18.1921H44.4054C45.7256 18.1921 46.7958 19.3336 46.7958 20.7418V33.2554C46.7958 34.6636 45.7256 35.8051 44.4054 35.8051Z" fill="#0F0400"/>
<path d="M36.5006 45.5342C31.5481 45.5342 27.5332 41.2518 27.5332 35.9691V29.4101C27.5332 24.1275 31.5481 19.8451 36.5006 19.8451C41.4531 19.8451 45.468 24.1275 45.468 29.4101V35.9691C45.468 41.2518 41.4531 45.5342 36.5006 45.5342Z" fill="#7F4A3D"/>
<path d="M40.8995 39.6005C40.8995 41.3443 38.9337 42.7568 36.5004 42.7568C34.0714 42.7568 32.1028 41.3507 32.1028 39.6048C32.1028 37.8583 34.0721 38.6078 36.5005 38.6078C38.931 38.6078 40.8995 37.8597 40.8995 39.6005Z" fill="#FFFCE6"/>
<path d="M38.5454 12.5683C38.5454 13.6621 37.7142 14.5488 36.6887 14.5488C35.6633 14.5488 34.832 13.6621 34.832 12.5683C34.832 11.4745 35.6633 10.5879 36.6887 10.5879C37.7142 10.5879 38.5454 11.4745 38.5454 12.5683Z" fill="#0F0400"/>
<path d="M36.9673 29.3031C36.9673 30.3969 36.136 31.2835 35.1106 31.2835C34.0851 31.2835 33.2539 30.3969 33.2539 29.3031C33.2539 28.2093 34.0851 27.3226 35.1106 27.3226C36.136 27.3226 36.9673 28.2093 36.9673 29.3031Z" fill="#603129"/>
<path d="M40.2165 29.3031C40.2165 30.3969 39.3853 31.2835 38.3599 31.2835C37.3344 31.2835 36.5032 30.3969 36.5032 29.3031C36.5032 28.2093 37.3344 27.3226 38.3599 27.3226C39.3853 27.3226 40.2165 28.2093 40.2165 29.3031Z" fill="#603129"/>
<path d="M43.6513 29.7982C43.6513 30.892 42.8201 31.7786 41.7947 31.7786C40.7692 31.7786 39.938 30.892 39.938 29.7982C39.938 28.7044 40.7692 27.8177 41.7947 27.8177C42.8201 27.8177 43.6513 28.7044 43.6513 29.7982Z" fill="#603129"/>
<path d="M45.4679 28.3906C45.3038 28.3399 45.1304 28.3128 44.9509 28.3128C43.9255 28.3128 43.0942 29.1994 43.0942 30.2932C43.0942 31.387 43.9255 32.2737 44.9509 32.2737C45.1304 32.2737 45.3038 32.2466 45.4679 32.1959V28.3906Z" fill="#603129"/>
<path d="M29.7263 29.6991C29.7263 30.7929 30.5576 31.6796 31.583 31.6796C32.6084 31.6796 33.4397 30.7929 33.4397 29.6991C33.4397 28.6053 32.6084 27.7187 31.583 27.7187C30.5576 27.7187 29.7263 28.6053 29.7263 29.6991Z" fill="#603129"/>
<path d="M27.4983 28.5886C27.7323 28.4751 28.0599 28.4119 28.3338 28.4119C29.3592 28.4119 30.1905 29.2985 30.1905 30.3923C30.1905 31.4861 29.3592 32.3727 28.3338 32.3727C28.0471 32.3727 27.7756 32.3034 27.5332 32.1797L27.4983 28.5886Z" fill="#603129"/>
<path d="M46.6221 30.6894L42.8159 29.4021L38.1742 28.907L34.5537 28.7089L31.3045 29.6001H30.1905L28.5195 30.5903L26.9413 30.7884L26.0129 29.303L26.2914 23.8349L29.8191 19.995L32.2328 18.2126H36.6888L40.4022 19.4008L43.6514 21.3813L46.3436 23.8568L46.9006 28.1148L46.6221 30.6894Z" fill="#603129"/>
<path d="M36.6889 27.6197C36.6889 28.7135 35.8577 29.6001 34.8323 29.6001C33.8068 29.6001 32.9756 28.7135 32.9756 27.6197C32.9756 26.5259 33.8068 25.6392 34.8323 25.6392C35.8577 25.6392 36.6889 26.5259 36.6889 27.6197Z" fill="#0F0400"/>
<path d="M40.4021 27.6197C40.4021 28.7135 39.5708 29.6001 38.5454 29.6001C37.52 29.6001 36.6887 28.7135 36.6887 27.6197C36.6887 26.5259 37.52 25.6392 38.5454 25.6392C39.5708 25.6392 40.4021 26.5259 40.4021 27.6197Z" fill="#0F0400"/>
<path d="M44.0227 28.4118C44.0227 29.5056 43.1914 30.3923 42.166 30.3923C41.1406 30.3923 40.3093 29.5056 40.3093 28.4118C40.3093 27.318 41.1406 26.4314 42.166 26.4314C43.1914 26.4314 44.0227 27.318 44.0227 28.4118Z" fill="#0F0400"/>
<path d="M47.7361 29.204C47.7361 30.2978 46.9048 31.1845 45.8794 31.1845C44.8539 31.1845 44.0227 30.2978 44.0227 29.204C44.0227 28.1102 44.8539 27.2236 45.8794 27.2236C46.9048 27.2236 47.7361 28.1102 47.7361 29.204Z" fill="#0F0400"/>
<path d="M29.2622 28.4118C29.2622 29.5056 30.0934 30.3923 31.1189 30.3923C32.1443 30.3923 32.9756 29.5056 32.9756 28.4118C32.9756 27.318 32.1443 26.4314 31.1189 26.4314C30.0934 26.4314 29.2622 27.318 29.2622 28.4118Z" fill="#0F0400"/>
<path d="M25.6416 29.204C25.6416 30.2978 26.4728 31.1845 27.4983 31.1845C28.5237 31.1845 29.355 30.2978 29.355 29.204C29.355 28.1102 28.5237 27.2236 27.4983 27.2236C26.4728 27.2236 25.6416 28.1102 25.6416 29.204Z" fill="#0F0400"/>
<path d="M41.6091 13.3605C41.6091 14.4543 40.7779 15.3409 39.7524 15.3409C38.727 15.3409 37.8958 14.4543 37.8958 13.3605C37.8958 12.2667 38.727 11.3801 39.7524 11.3801C40.7779 11.3801 41.6091 12.2667 41.6091 13.3605Z" fill="#0F0400"/>
<path d="M45.0439 14.6478C45.0439 15.7416 44.2127 16.6282 43.1872 16.6282C42.1618 16.6282 41.3306 15.7416 41.3306 14.6478C41.3306 13.554 42.1618 12.6674 43.1872 12.6674C44.2127 12.6674 45.0439 13.554 45.0439 14.6478Z" fill="#0F0400"/>
<path d="M47.8288 17.2224C47.8288 18.3162 46.9976 19.2028 45.9722 19.2028C44.9467 19.2028 44.1155 18.3162 44.1155 17.2224C44.1155 16.1286 44.9467 15.2419 45.9722 15.2419C46.9976 15.2419 47.8288 16.1286 47.8288 17.2224Z" fill="#0F0400"/>
<path d="M49.5927 20.5891C49.5927 21.6829 48.7615 22.5695 47.7361 22.5695C46.7106 22.5695 45.8794 21.6829 45.8794 20.5891C45.8794 19.4953 46.7106 18.6086 47.7361 18.6086C48.7615 18.6086 49.5927 19.4953 49.5927 20.5891Z" fill="#0F0400"/>
<path d="M50.0569 24.352C50.0569 25.4458 49.2256 26.3324 48.2002 26.3324C47.1747 26.3324 46.3435 25.4458 46.3435 24.352C46.3435 23.2582 47.1747 22.3715 48.2002 22.3715C49.2256 22.3715 50.0569 23.2582 50.0569 24.352Z" fill="#0F0400"/>
<path d="M50.0569 27.9167C50.0569 29.0105 49.2256 29.8972 48.2002 29.8972C47.1747 29.8972 46.3435 29.0105 46.3435 27.9167C46.3435 26.8229 47.1747 25.9363 48.2002 25.9363C49.2256 25.9363 50.0569 26.8229 50.0569 27.9167Z" fill="#0F0400"/>
<path d="M47.1791 30.5903L42.8159 28.4118L38.1742 27.9167L34.5537 27.7187L31.3045 28.6099H30.1905L28.5195 29.6001L26.9413 30.7766L25.6416 28.6099L26.2914 22.8446L29.8191 19.0047L32.2328 17.2224H36.6888L40.4022 18.4106L43.6514 20.3911L46.3436 22.8666L46.9006 27.1246L47.1791 30.5903Z" fill="#0F0400"/>
<path d="M96.2783 41.03C96.9465 37.5373 95.8622 33.6969 92.9883 31.2109C89.6267 28.3031 84.693 28.2829 81.3137 31.1671C76.8811 34.9502 76.615 41.8714 80.515 46.0315L81.7354 47.3511C86.2355 52.1512 93.5287 52.1643 98.0289 47.3641L98.0353 47.3596C96.4833 45.704 95.8415 43.3199 96.2783 41.03Z" fill="#8B572A"/>
<path d="M62.3843 61.8053C62.3843 51.5687 70.164 44.0131 79.7609 44.0131H83.5918C93.1887 44.0131 100.968 51.5687 100.968 61.8053H62.3843Z" fill="#333333"/>
<path d="M87.9032 48.8703C87.9032 52.5549 85.1028 55.5419 81.6485 55.5419C78.1941 55.5419 75.3938 52.5549 75.3938 48.8703C75.3938 45.1857 78.1941 42.1987 81.6485 42.1987C85.1028 42.1987 87.9032 45.1857 87.9032 48.8703Z" fill="#FBC498"/>
<path d="M95.3709 30.4288C95.3709 38.6934 89.0896 45.3933 81.3414 45.3933C73.5932 45.3933 67.312 38.6934 67.312 30.4288C67.312 22.1641 73.5932 15.4642 81.3414 15.4642C89.0896 15.4642 95.3709 22.1641 95.3709 30.4288Z" fill="#8B572A"/>
<path d="M81.6763 51.7018C78.9803 51.7018 76.7947 49.3705 76.7947 46.4947V34.0627H86.558V46.4947C86.558 49.3705 84.3724 51.7018 81.6763 51.7018Z" fill="#EB957D"/>
<path d="M72.1678 34.0608C72.1678 36.5842 70.2499 38.6299 67.8841 38.6299C65.5184 38.6299 63.6006 36.5842 63.6006 34.0608C63.6006 31.5373 65.5184 29.4917 67.8841 29.4917C70.2499 29.4917 72.1678 31.5373 72.1678 34.0608Z" fill="#EFB086"/>
<path d="M96.7506 34.0608C96.7506 36.5842 94.8328 38.6299 92.467 38.6299C90.1012 38.6299 88.1833 36.5842 88.1833 34.0608C88.1833 31.5373 90.1012 29.4917 92.467 29.4917C94.8328 29.4917 96.7506 31.5373 96.7506 34.0608Z" fill="#EFB086"/>
<path d="M92.467 32.2826C92.467 39.5234 86.9639 45.3933 80.1755 45.3933C73.3871 45.3933 67.884 39.5234 67.884 32.2826C67.884 25.0417 73.3871 19.1718 80.1755 19.1718C86.9639 19.1718 92.467 25.0417 92.467 32.2826Z" fill="#EFB086"/>
<path d="M67.4272 28.6002C69.6237 31.1127 72.745 32.693 76.2196 32.693C82.8649 32.693 88.2519 26.9469 88.2519 19.8587C88.2519 18.9675 88.1662 18.0978 88.004 17.2577C86.0218 16.1145 83.7531 15.4642 81.3415 15.4642C74.1748 15.4642 68.2743 21.1999 67.4272 28.6002Z" fill="#8B572A"/>
<path d="M86.3553 16.4656C84.7178 17.9122 83.6743 20.0968 83.6743 22.5419C83.6743 26.8976 86.9846 30.4288 91.0683 30.4288C92.6449 30.4288 94.1032 29.8982 95.3033 29.0012C94.7924 23.248 91.2256 18.4571 86.3553 16.4656Z" fill="#8B572A"/>
</g>
</g>
<defs>
<clipPath id="clip0_27_8762">
<rect width="114" height="81" fill="white"/>
</clipPath>
</defs>
</svg>
