<svg width="20" height="18" viewBox="0 0 20 18" fill="none" xmlns="http://www.w3.org/2000/svg">
<g clip-path="url(#clip0_27_7954)">
<path d="M13.9792 2.92148L17.1111 6.09258C17.2431 6.22617 17.2431 6.44414 17.1111 6.57773L9.52778 14.2559L6.30556 14.618C5.875 14.6672 5.51042 14.298 5.55903 13.8621L5.91667 10.5996L13.5 2.92148C13.6319 2.78789 13.8472 2.78789 13.9792 2.92148ZM19.6042 2.11641L17.9097 0.400781C17.3819 -0.133594 16.5243 -0.133594 15.9931 0.400781L14.7639 1.64531C14.6319 1.77891 14.6319 1.99688 14.7639 2.13047L17.8958 5.30156C18.0278 5.43516 18.2431 5.43516 18.375 5.30156L19.6042 4.05703C20.1319 3.51914 20.1319 2.65078 19.6042 2.11641ZM13.3333 12.1676V15.7465H2.22222V4.49648H10.2014C10.3125 4.49648 10.4167 4.45078 10.4965 4.37344L11.8854 2.96719C12.1493 2.7 11.9618 2.24648 11.5903 2.24648H1.66667C0.746528 2.24648 0 3.00234 0 3.93398V16.309C0 17.2406 0.746528 17.9965 1.66667 17.9965H13.8889C14.809 17.9965 15.5556 17.2406 15.5556 16.309V10.7613C15.5556 10.3852 15.1076 10.1988 14.8438 10.4625L13.4549 11.8688C13.3785 11.9496 13.3333 12.0551 13.3333 12.1676Z" fill="#33383D"/>
</g>
<defs>
<clipPath id="clip0_27_7954">
<rect width="20" height="18" fill="white"/>
</clipPath>
</defs>
</svg>
