<svg width="250" height="250" viewBox="0 0 250 250" fill="none" xmlns="http://www.w3.org/2000/svg">
<g clip-path="url(#clip0_8_21)">
<mask id="mask0_8_21" style="mask-type:luminance" maskUnits="userSpaceOnUse" x="0" y="0" width="250" height="250">
<path d="M250 0H0V250H250V0Z" fill="white"/>
</mask>
<g mask="url(#mask0_8_21)">
<path d="M56.1552 166.087L52.483 159.191C51.4686 157.286 49.1041 156.565 47.1991 157.58L40.3034 161.252C38.3985 162.266 37.6772 164.631 38.6916 166.536L42.3637 173.431C43.3782 175.336 45.7427 176.058 47.6477 175.043L54.5434 171.371C56.4483 170.357 57.1696 167.992 56.1552 166.087Z" stroke="#A0B424" stroke-width="4" stroke-miterlimit="10"/>
<path d="M51.0955 173.207L55.6856 181.827" stroke="#A0B424" stroke-width="4" stroke-miterlimit="10"/>
<path d="M43.7512 159.416L39.161 150.796" stroke="#A0B424" stroke-width="4" stroke-miterlimit="10"/>
<path d="M57.6338 189.64L61.0817 187.804" stroke="#A0B424" stroke-width="4" stroke-miterlimit="10"/>
<path d="M61.3059 196.536L64.7538 194.7" stroke="#A0B424" stroke-width="4" stroke-miterlimit="10"/>
<path d="M64.9781 203.432L68.4259 201.596" stroke="#A0B424" stroke-width="4" stroke-miterlimit="10"/>
<path d="M61.6423 209.634L50.626 188.947C49.6115 187.042 50.3328 184.677 52.2377 183.663L59.1334 179.991C61.0384 178.976 63.4029 179.697 64.4174 181.602L75.4337 202.29C76.4481 204.194 75.7269 206.559 73.8219 207.573L66.9262 211.246C65.0213 212.26 62.6567 211.539 61.6423 209.634Z" stroke="#A0B424" stroke-width="4" stroke-miterlimit="10"/>
<path d="M26.4208 131.027L29.8687 129.191" stroke="#A0B424" stroke-width="4" stroke-miterlimit="10"/>
<path d="M30.0929 137.923L33.5408 136.087" stroke="#A0B424" stroke-width="4" stroke-miterlimit="10"/>
<path d="M33.765 144.818L37.2129 142.982" stroke="#A0B424" stroke-width="4" stroke-miterlimit="10"/>
<path d="M30.4293 151.02L19.4129 130.333C18.3985 128.428 19.1198 126.064 21.0247 125.049L27.9204 121.377C29.8254 120.363 32.1899 121.084 33.2043 122.989L44.2207 143.676C45.2351 145.581 44.5139 147.946 42.6089 148.96L35.7132 152.632C33.8083 153.647 31.4437 152.925 30.4293 151.02Z" stroke="#A0B424" stroke-width="4" stroke-miterlimit="10"/>
<path d="M43.8301 97.953C42.4754 101.995 41.4171 106.151 40.6757 110.346L39.7774 110.205C40.5269 105.955 41.5981 101.745 42.9709 97.6505L43.8301 97.953Z" fill="#A0B424" stroke="#33383D" stroke-width="3"/>
<path d="M102.144 208.393C97.9768 207.258 93.8813 205.807 89.9318 204.067L90.3151 203.242C94.2139 204.957 98.2559 206.389 102.371 207.509L102.144 208.393Z" fill="#A0B424" stroke="#33383D" stroke-width="3"/>
<path d="M59.1033 70.4788C56.3843 73.7585 53.9008 77.2585 51.6989 80.9142L50.9131 80.4608C53.1449 76.7563 55.6605 73.2098 58.4149 69.8883L59.1033 70.4788Z" fill="#A0B424" stroke="#33383D" stroke-width="3"/>
<path d="M133.812 210.985C129.517 211.429 125.17 211.55 120.85 211.347L120.911 210.44C125.175 210.641 129.464 210.521 133.704 210.084L133.812 210.985Z" fill="#A0B424" stroke="#33383D" stroke-width="3"/>
<path d="M83.288 50.3839C79.5505 52.4725 75.9669 54.8369 72.6023 57.4352L72.0336 56.7267C75.4398 54.0952 79.0722 51.6991 82.859 49.5845L83.288 50.3839Z" fill="#A0B424" stroke="#33383D" stroke-width="3"/>
<path d="M164.72 201.717C160.714 203.791 156.557 205.553 152.324 206.973L152.051 206.107C156.234 204.703 160.341 202.964 164.29 200.919L164.72 201.717Z" fill="#A0B424" stroke="#33383D" stroke-width="3"/>
<path d="M113.075 40.3103C108.852 40.9113 104.661 41.8323 100.574 43.0574L100.299 42.1924C104.438 40.9508 108.687 40.0173 112.964 39.4101L113.075 40.3103Z" fill="#A0B424" stroke="#33383D" stroke-width="3"/>
<path d="M189.799 182.199C186.936 185.434 183.816 188.465 180.499 191.235L179.931 190.53C183.204 187.795 186.281 184.803 189.108 181.61L189.799 182.199Z" fill="#A0B424" stroke="#33383D" stroke-width="3"/>
<path d="M144.484 41.6941C140.329 40.729 136.089 40.0715 131.84 39.7331L131.898 38.8268C136.203 39.1683 140.498 39.8352 144.706 40.8133L144.484 41.6941Z" fill="#A0B424" stroke="#33383D" stroke-width="3"/>
<path d="M206.115 154.944C204.612 158.993 202.799 162.944 200.713 166.725L199.924 166.273C201.983 162.541 203.771 158.642 205.255 154.644L206.115 154.944Z" fill="#A0B424" stroke="#33383D" stroke-width="3"/>
<path d="M173.269 54.2742C169.749 51.8849 166.034 49.7484 162.188 47.9052L162.568 47.0785C166.464 48.9454 170.228 51.1102 173.794 53.5312L173.269 54.2742Z" fill="#A0B424" stroke="#33383D" stroke-width="3"/>
<path d="M211.53 123.657C211.586 127.969 211.317 132.303 210.727 136.583L209.826 136.445C210.406 132.22 210.673 127.942 210.618 123.687L211.53 123.657Z" fill="#A0B424" stroke="#33383D" stroke-width="3"/>
<path d="M195.53 76.4061C193.113 72.8928 190.427 69.5552 187.522 66.4552L188.178 65.8193C191.121 68.9593 193.843 72.3407 196.292 75.9007L195.53 76.4061Z" fill="#A0B424" stroke="#33383D" stroke-width="3"/>
<path d="M205.252 92.5567C206.874 96.5616 208.198 100.694 209.197 104.88L208.305 105.076C207.318 100.944 206.012 96.8666 204.412 92.9147L205.252 92.5567Z" fill="#A0B424" stroke="#33383D" stroke-width="3"/>
<path d="M50.7726 151.824C55.0585 152.343 59.0363 154.876 61.2147 158.967C63.3932 163.058 63.2749 167.772 61.3134 171.618" stroke="#A0B424" stroke-width="2" stroke-miterlimit="10"/>
<g opacity="0.925085">
<path d="M52.1512 146.102C58.0115 147.022 63.3901 150.586 66.3865 156.213C69.3857 161.845 69.3375 168.303 66.823 173.683" stroke="#A0B424" stroke-width="4" stroke-miterlimit="10"/>
</g>
<path d="M179.688 125C179.688 94.7969 155.203 70.3125 125 70.3125C94.7969 70.3125 70.3125 94.7969 70.3125 125C70.3125 155.203 94.7969 179.688 125 179.688C155.203 179.688 179.688 155.203 179.688 125Z" stroke="#A0B424" stroke-width="4" stroke-miterlimit="10"/>
<path d="M179.688 125H70.3125" stroke="#A0B424" stroke-width="4" stroke-miterlimit="10"/>
<path d="M171.875 153.646H125H78.125" stroke="#A0B424" stroke-width="4" stroke-miterlimit="10"/>
<path d="M171.875 96.3535H125H78.125" stroke="#A0B424" stroke-width="4" stroke-miterlimit="10"/>
<path d="M125 179.632C146.97 179.167 171.635 157.818 171.709 125C171.784 92.1594 146.815 70.7886 125 70.4121" stroke="#A0B424" stroke-width="4" stroke-miterlimit="10" stroke-linecap="round"/>
<path d="M125 179.688C114.29 178.288 88.9604 160.31 88.9604 125C88.9604 89.5695 114.682 71.5441 125 70.3125" stroke="#A0B424" stroke-width="4" stroke-miterlimit="10" stroke-linecap="round"/>
<path d="M125 179.516C125.996 177.786 136.614 162.725 136.614 125C136.614 87.1746 125.759 72.0874 125 70.6486" stroke="#A0B424" stroke-width="4" stroke-miterlimit="10" stroke-linecap="round"/>
</g>
</g>
<defs>
<clipPath id="clip0_8_21">
<rect width="250" height="250" fill="white"/>
</clipPath>
</defs>
</svg>
