<svg width="24" height="26" viewBox="0 0 24 26" fill="none" xmlns="http://www.w3.org/2000/svg">
<path d="M12.5812 0.41748L23.3812 8.22998C23.9587 8.6499 24.1687 9.60205 23.8462 10.354C23.5237 11.106 22.7925 11.3794 22.215 10.9595L12 3.57178L1.78125 10.9644C1.20375 11.3843 0.472499 11.1108 0.149999 10.3589C-0.172501 9.60693 0.0374991 8.65479 0.614999 8.23486L11.4187 0.41748C11.7825 0.153809 12.2212 0.153809 12.585 0.41748H12.5812ZM12 8.03467C12.3978 8.03467 12.7794 8.24044 13.0607 8.60672C13.342 8.97301 13.5 9.46979 13.5 9.98779C13.5 10.5058 13.342 11.0026 13.0607 11.3689C12.7794 11.7351 12.3978 11.9409 12 11.9409C11.6022 11.9409 11.2206 11.7351 10.9393 11.3689C10.658 11.0026 10.5 10.5058 10.5 9.98779C10.5 9.46979 10.658 8.97301 10.9393 8.60672C11.2206 8.24044 11.6022 8.03467 12 8.03467ZM5.4 12.7222C5.79782 12.7222 6.17935 12.9279 6.46066 13.2942C6.74196 13.6605 6.9 14.1573 6.9 14.6753C6.9 15.1933 6.74196 15.6901 6.46066 16.0564C6.17935 16.4226 5.79782 16.6284 5.4 16.6284C5.00217 16.6284 4.62064 16.4226 4.33934 16.0564C4.05803 15.6901 3.9 15.1933 3.9 14.6753C3.9 14.1573 4.05803 13.6605 4.33934 13.2942C4.62064 12.9279 5.00217 12.7222 5.4 12.7222ZM17.1 14.6753C17.1 14.1573 17.258 13.6605 17.5393 13.2942C17.8206 12.9279 18.2022 12.7222 18.6 12.7222C18.9978 12.7222 19.3794 12.9279 19.6607 13.2942C19.942 13.6605 20.1 14.1573 20.1 14.6753C20.1 15.1933 19.942 15.6901 19.6607 16.0564C19.3794 16.4226 18.9978 16.6284 18.6 16.6284C18.2022 16.6284 17.8206 16.4226 17.5393 16.0564C17.258 15.6901 17.1 15.1933 17.1 14.6753ZM8.50875 24.2163L7.5 21.7798V23.6597C7.5 24.5239 6.96375 25.2222 6.3 25.2222H4.5C3.83625 25.2222 3.3 24.5239 3.3 23.6597V21.7798L2.29125 24.2163C2.055 24.7876 1.51125 24.9976 1.0725 24.6948C0.633749 24.3921 0.472499 23.6792 0.704999 23.1079L2.12625 19.6753C2.7 18.2837 3.8175 17.4146 5.0325 17.4146H5.76375C6.375 17.4146 6.96 17.6343 7.46625 18.0298L8.72625 14.9878C9.3 13.5962 10.4175 12.7271 11.6325 12.7271H12.3637C13.5787 12.7271 14.6925 13.5962 15.27 14.9878L16.53 18.0298C17.0362 17.6343 17.6212 17.4146 18.2325 17.4146H18.9637C20.1787 17.4146 21.2925 18.2837 21.87 19.6753L23.2912 23.1079C23.5275 23.6792 23.3625 24.3872 22.9237 24.6948C22.485 25.0024 21.9412 24.7876 21.705 24.2163L20.7 21.7798V23.6597C20.7 24.5239 20.1637 25.2222 19.5 25.2222H17.7C17.0362 25.2222 16.5 24.5239 16.5 23.6597V21.7798L15.4912 24.2163C15.255 24.7876 14.7112 24.9976 14.2725 24.6948C13.8337 24.3921 13.6725 23.6792 13.905 23.1079L15.2662 19.812C15.2025 19.729 15.1462 19.6362 15.105 19.5288L14.1 17.0923V19.7534C14.1 20.6177 13.5637 21.3159 12.9 21.3159H11.1C10.4362 21.3159 9.9 20.6177 9.9 19.7534V17.0923L8.89125 19.5288C8.84625 19.6362 8.79375 19.729 8.73 19.812L10.0912 23.1079C10.3275 23.6792 10.1625 24.3872 9.72375 24.6948C9.285 25.0024 8.74125 24.7876 8.505 24.2163H8.50875Z" fill="black"/>
</svg>
