<svg width="21" height="20" viewBox="0 0 21 20" fill="none" xmlns="http://www.w3.org/2000/svg">
<path d="M19.9444 0L19.7667 0.0333333L13.8333 2.33333L7.16667 0L0.9 2.11111C0.666667 2.18889 0.5 2.38889 0.5 2.64444V19.4444C0.5 19.7556 0.744444 20 1.05556 20L1.23333 19.9667L7.16667 17.6667L13.8333 20L20.1 17.8889C20.3333 17.8111 20.5 17.6111 20.5 17.3556V0.555556C20.5 0.244444 20.2556 0 19.9444 0ZM8.27778 2.74444L12.7222 4.3V17.2556L8.27778 15.7V2.74444ZM2.72222 3.84444L6.05556 2.72222V15.7222L2.72222 17.0111V3.84444ZM18.2778 16.1556L14.9444 17.2778V4.28889L18.2778 3V16.1556Z" fill="#33383D"/>
</svg>
