<svg width="24" height="25" viewBox="0 0 24 25" fill="none" xmlns="http://www.w3.org/2000/svg">
<path d="M14.7207 1.95662C13.1437 1.84437 11.5195 1.78577 9.8605 1.78577C8.2015 1.78577 6.57723 1.84437 5.00026 1.95662C3.26499 2.08014 1.9375 3.37412 1.85912 4.9497C1.73806 7.38313 1.67432 9.90924 1.67432 12.5001C1.67432 15.0909 1.73806 17.617 1.85912 20.0505C1.9375 21.6261 3.26501 22.92 5.00026 23.0434C6.57723 23.1557 8.2015 23.2143 9.8605 23.2143C11.5195 23.2143 13.1437 23.1557 14.7207 23.0434C16.456 22.92 17.7835 21.6261 17.8618 20.0505C17.905 19.1822 17.9409 18.3022 17.9693 17.4116V7.58856C17.9409 6.69798 17.905 5.81794 17.8618 4.9497C17.7835 3.37412 16.456 2.08014 14.7207 1.95662Z" fill="black"/>
<path d="M12 7.57788C9.84041 9.34726 8.7613 10.4261 7.07784 12.5001C8.7613 14.574 9.84041 15.6529 12 17.4222" stroke="#F6F7FC" stroke-linecap="round" stroke-linejoin="round"/>
<path d="M17.9693 7.58856C17.9409 6.69798 17.905 5.81794 17.8618 4.9497C17.7835 3.37412 16.456 2.08014 14.7207 1.95662C13.1437 1.84437 11.5195 1.78577 9.8605 1.78577C8.2015 1.78577 6.57723 1.84437 5.00026 1.95662C3.26499 2.08014 1.9375 3.37412 1.85912 4.9497C1.73806 7.38313 1.67432 9.90924 1.67432 12.5001C1.67432 15.0909 1.73806 17.617 1.85912 20.0505C1.9375 21.6261 3.26501 22.92 5.00026 23.0434C6.57723 23.1557 8.2015 23.2143 9.86048 23.2143C11.5195 23.2143 13.1437 23.1557 14.7207 23.0434C16.456 22.92 17.7835 21.6261 17.8618 20.0505C17.905 19.1822 17.9409 18.3022 17.9693 17.4116" stroke="#F6F7FC" stroke-linecap="round"/>
<path d="M22.3258 12.5H7.13253" stroke="#F6F7FC" stroke-linecap="round" stroke-linejoin="round"/>
</svg>
