<svg width="275" height="250" viewBox="0 0 275 250" fill="none" xmlns="http://www.w3.org/2000/svg">
<g clip-path="url(#clip0_9_182)">
<mask id="mask0_9_182" style="mask-type:luminance" maskUnits="userSpaceOnUse" x="0" y="0" width="275" height="250">
<path d="M275 0H0V250H275V0Z" fill="white"/>
</mask>
<g mask="url(#mask0_9_182)">
<path d="M236.605 178.151L192.681 203.332C188.133 205.939 182.549 206.582 177.43 205.086L129.283 191.016C124.131 189.511 118.509 190.172 113.948 192.819L78.6988 213.274C74.8551 215.482 69.7706 214.439 67.342 210.945C66.9229 210.342 66.6004 209.687 66.385 209.001L35.962 112.042C34.9604 108.849 36.393 105.438 39.4806 103.663L83.8726 78.1582C88.8551 75.2956 94.977 74.5889 100.588 76.2283L147.199 89.849C152.831 91.4947 158.976 90.7764 163.967 87.8892L197.347 68.5784C201.183 66.3596 206.271 67.3876 208.712 70.8749C209.138 71.4839 209.465 72.1454 209.683 72.8393L240.101 169.785C241.101 172.97 239.679 176.373 236.605 178.151Z" fill="#CCCDCF"/>
<path d="M238.32 167.861L200.813 189.559C195.821 192.446 189.676 193.165 184.044 191.519L137.43 177.898C131.819 176.259 125.697 176.966 120.715 179.828L80.4122 202.984C76.5688 205.192 71.4843 204.149 69.0558 200.655C68.6366 200.051 68.3141 199.397 68.0991 198.711L37.676 101.752C36.6741 98.5589 38.1067 95.1473 41.1943 93.3734L85.5844 67.8664C90.5666 65.0041 96.6888 64.2977 102.3 65.9373L148.913 79.5583C154.546 81.2041 160.691 80.4855 165.682 77.5979L199.062 58.2877C202.897 56.0686 207.986 57.0967 210.427 60.5839C210.853 61.1926 211.18 61.8544 211.397 62.5487L241.816 159.493C242.816 162.678 241.394 166.082 238.32 167.861Z" fill="white"/>
<path d="M132.956 166.938L125.982 149.049L93.0228 159.307L82.7169 132.161L55.8727 137.018L74.6937 197C74.8647 197.541 75.4095 197.912 76.0284 197.91C76.2836 197.909 76.533 197.84 76.7464 197.712L115.063 175.697C114.896 175.52 132.956 166.938 132.956 166.938Z" fill="#EAF4F7"/>
<path d="M238.32 167.861L200.813 189.559C195.821 192.446 189.676 193.165 184.044 191.519L137.43 177.898C131.819 176.259 125.697 176.966 120.715 179.828L80.4122 202.984C76.5688 205.192 71.4843 204.149 69.0558 200.655C68.6366 200.051 68.3141 199.397 68.0991 198.711L37.676 101.752C36.6741 98.5589 38.1067 95.1473 41.1943 93.3734L85.5844 67.8664C90.5666 65.0041 96.6888 64.2977 102.3 65.9373L148.913 79.5583C154.546 81.2041 160.691 80.4855 165.682 77.5979L199.062 58.2877C202.897 56.0686 207.986 57.0967 210.427 60.5839C210.853 61.1926 211.18 61.8544 211.397 62.5487L241.816 159.493C242.816 162.678 241.394 166.082 238.32 167.861Z" stroke="#36395A" stroke-width="6.96" stroke-miterlimit="10"/>
<path d="M100.365 84.2633L125.934 88.6693L120.062 79.2872L98.8997 72.5751C96.4278 71.7913 93.7144 71.9322 91.357 72.9672L44.8573 98.6447C44.3447 98.9419 44.1064 99.5092 44.2707 100.041L51.7697 123.941L72.2141 119.345L68.4595 105.654L100.365 84.2633Z" fill="#33383D"/>
<path d="M100.365 84.2633L125.934 88.6693L120.062 79.2872L98.8997 72.5751C96.4278 71.7913 93.7144 71.9322 91.357 72.9672L44.8573 98.6447C44.3447 98.9419 44.1064 99.5092 44.2707 100.041L51.7697 123.941L72.2141 119.345L68.4595 105.654L100.365 84.2633Z" stroke="#33383D" stroke-width="4.64" stroke-linecap="round" stroke-linejoin="round"/>
<path d="M140.885 143.449L155.476 146.789L162.53 161.487L146.812 159.144L140.885 143.449Z" fill="#A0B424"/>
<path d="M140.885 143.449L155.476 146.789L162.53 161.487L146.812 159.144L140.885 143.449Z" stroke="#A0B424" stroke-width="4.64" stroke-linecap="round" stroke-linejoin="round"/>
<path d="M195.488 138.971L222.26 128.376L232.837 157.669L189.484 180.066L181.538 159.678L198.489 151.011L195.488 138.971Z" fill="#A0B424"/>
<path d="M195.488 138.971L222.26 128.376L232.837 157.669L189.484 180.066L181.538 159.678L198.489 151.011L195.488 138.971Z" stroke="#A0B424" stroke-width="4.64" stroke-linecap="round" stroke-linejoin="round"/>
<path d="M98.175 156.25C98.175 156.25 113.025 152.25 117.15 148.25C121.275 144.25 123.75 144 111.375 128C99 112 101.2 108 102.025 106.75C102.85 105.5 107.8 102.5 124.575 104.25C124.671 104.26 124.767 104.27 124.862 104.281" stroke="#363A5A" stroke-width="4" stroke-linecap="round" stroke-linejoin="round" stroke-dasharray="10 10"/>
<path d="M96.3023 142.596C104.793 142.596 111.676 148.853 111.676 156.571C111.676 164.29 104.793 170.547 96.3023 170.547C87.8118 170.547 80.9291 164.29 80.9291 156.571C80.9291 148.853 87.8118 142.596 96.3023 142.596Z" fill="#A0B424"/>
<path d="M96.3023 148.467C101.226 148.467 105.217 152.096 105.217 156.571C105.217 161.047 101.226 164.676 96.3023 164.676C91.3789 164.676 87.3876 161.047 87.3876 156.571C87.3876 152.096 91.3789 148.467 96.3023 148.467Z" fill="#A0B424"/>
<path d="M96.3023 148.467C93.5324 148.465 90.9195 149.636 89.2339 151.635C93.3053 149.119 98.8492 150.08 101.617 153.781C103.779 156.674 103.656 160.502 101.311 163.276C105.384 160.761 106.443 155.72 103.676 152.017C102.017 149.797 99.2559 148.467 96.3029 148.467H96.3023Z" fill="#33383D"/>
<path d="M96.3023 148.467C101.226 148.467 105.217 152.096 105.217 156.571C105.217 161.047 101.226 164.676 96.3023 164.676C91.3789 164.676 87.3876 161.047 87.3876 156.571C87.3876 152.096 91.3789 148.467 96.3023 148.467Z" stroke="#36395A" stroke-width="6.96" stroke-miterlimit="10"/>
<path d="M144.651 63.997C144.651 47.235 129.685 33.7373 111.551 34.5208C95.3138 35.2226 81.4714 47.7976 81.4714 62.9768C81.4714 84.9347 113.052 101.866 113.052 101.866C113.052 101.866 144.651 84.9347 144.651 63.997Z" fill="#ED4637"/>
<path d="M124.587 93.3688C119.462 97.0036 112.267 96.981 107.169 93.3142C97.8227 86.5862 84.3042 74.3706 84.3042 60.0048C84.3274 53.9053 86.5467 47.9809 90.6229 43.1358C85.0171 48.2822 81.4714 55.2955 81.4714 62.9768C81.4714 84.9347 113.052 101.865 113.052 101.865C113.052 101.865 125.931 94.9635 135.245 84.5235C131.958 87.7259 128.394 90.6837 124.587 93.3688Z" fill="#CD3B27"/>
<path d="M111.551 34.5205C105.858 34.787 100.353 36.4641 95.6328 39.3702C99.3498 37.7407 103.389 36.8051 107.51 36.6195C125.645 35.8365 140.611 49.3334 140.611 66.0957C140.611 82.5126 121.185 96.4657 112.796 101.726C112.961 101.817 113.051 101.867 113.051 101.867C113.051 101.867 144.65 84.9344 144.65 63.9967C144.651 47.2347 129.685 33.7369 111.551 34.5205Z" fill="#EF7378"/>
<path d="M113.052 75.2849C105.872 75.2849 100.051 69.9936 100.051 63.466C100.05 56.9384 105.871 51.6467 113.052 51.6465C120.232 51.6462 126.053 56.9378 126.053 63.4654C126.053 69.9927 120.233 75.2849 113.052 75.2849Z" fill="white"/>
<path d="M113.052 75.2849C105.872 75.2849 100.051 69.9936 100.051 63.466C100.05 56.9384 105.871 51.6467 113.052 51.6465C120.232 51.6462 126.053 56.9378 126.053 63.4654C126.053 69.9927 120.233 75.2849 113.052 75.2849Z" stroke="#36395A" stroke-width="6.96" stroke-miterlimit="10"/>
<path d="M144.651 63.997C144.651 47.235 129.685 33.7373 111.551 34.5208C95.3138 35.2226 81.4714 47.7976 81.4714 62.9768C81.4714 84.9347 113.052 101.866 113.052 101.866C113.052 101.866 144.651 84.9347 144.651 63.997Z" stroke="#36395A" stroke-width="6.96" stroke-linecap="round" stroke-linejoin="round"/>
</g>
</g>
<defs>
<clipPath id="clip0_9_182">
<rect width="275" height="250" fill="white"/>
</clipPath>
</defs>
</svg>
