<svg width="23" height="19" viewBox="0 0 23 19" fill="none" xmlns="http://www.w3.org/2000/svg">
<path fill-rule="evenodd" clip-rule="evenodd" d="M7.3064 1.83179H21.9193H7.3064Z" fill="#33383D"/>
<path d="M7.3064 1.83179H21.9193" stroke="#33383D" stroke-width="2" stroke-linecap="round" stroke-linejoin="round"/>
<path fill-rule="evenodd" clip-rule="evenodd" d="M7.30634 9.1554H16.4394H7.30634Z" fill="#33383D"/>
<path d="M7.30634 9.1554H16.4394" stroke="#33383D" stroke-width="2" stroke-linecap="round" stroke-linejoin="round"/>
<path fill-rule="evenodd" clip-rule="evenodd" d="M7.30634 16.4863H21.9192H7.30634Z" fill="#33383D"/>
<path d="M7.30634 16.4863H21.9192" stroke="#33383D" stroke-width="2" stroke-linecap="round" stroke-linejoin="round"/>
<path fill-rule="evenodd" clip-rule="evenodd" d="M1.82449 3.66365C2.73779 3.66365 3.6511 2.74774 3.6511 1.83182C3.6511 0.915912 2.73779 0 1.82449 0C0.911186 0 0 0.915912 0 1.83182C0 2.74774 0.911186 3.66365 1.82449 3.66365ZM1.82449 10.9909C2.73779 10.9909 3.6511 10.075 3.6511 9.15912C3.6511 8.24321 2.73779 7.3273 1.82449 7.3273C0.911186 7.3273 0 8.24321 0 9.15912C0 10.075 0.911186 10.9909 1.82449 10.9909ZM1.82449 18.3182C2.73779 18.3182 3.6511 17.4023 3.6511 16.4864C3.6511 15.5705 2.73779 14.6546 1.82449 14.6546C0.911186 14.6546 0 15.5705 0 16.4864C0 17.4023 0.911186 18.3182 1.82449 18.3182Z" fill="#33383D"/>
</svg>
