<svg width="28" height="22" viewBox="0 0 28 22" fill="none" xmlns="http://www.w3.org/2000/svg">
<path d="M6.575 0C7.47011 0 8.32855 0.362164 8.96149 1.00682C9.59442 1.65148 9.95 2.52582 9.95 3.4375C9.95 4.34918 9.59442 5.22352 8.96149 5.86818C8.32855 6.51284 7.47011 6.875 6.575 6.875C5.67989 6.875 4.82145 6.51284 4.18851 5.86818C3.55558 5.22352 3.2 4.34918 3.2 3.4375C3.2 2.52582 3.55558 1.65148 4.18851 1.00682C4.82145 0.362164 5.67989 0 6.575 0ZM22.1 0C22.9951 0 23.8535 0.362164 24.4865 1.00682C25.1194 1.65148 25.475 2.52582 25.475 3.4375C25.475 4.34918 25.1194 5.22352 24.4865 5.86818C23.8535 6.51284 22.9951 6.875 22.1 6.875C21.2049 6.875 20.3465 6.51284 19.7135 5.86818C19.0806 5.22352 18.725 4.34918 18.725 3.4375C18.725 2.52582 19.0806 1.65148 19.7135 1.00682C20.3465 0.362164 21.2049 0 22.1 0ZM0.5 12.8348C0.5 10.3039 2.51656 8.25 5.00141 8.25H6.80281C7.47359 8.25 8.11063 8.40039 8.68437 8.6668C8.62953 8.97617 8.60422 9.29844 8.60422 9.625C8.60422 11.2664 9.31297 12.7402 10.4309 13.75C10.4225 13.75 10.4141 13.75 10.4014 13.75H1.39859C0.905 13.75 0.5 13.3375 0.5 12.8348ZM17.5986 13.75C17.5902 13.75 17.5817 13.75 17.5691 13.75C18.6912 12.7402 19.3958 11.2664 19.3958 9.625C19.3958 9.29844 19.3663 8.98047 19.3156 8.6668C19.8894 8.39609 20.5264 8.25 21.1972 8.25H22.9986C25.4834 8.25 27.5 10.3039 27.5 12.8348C27.5 13.3418 27.095 13.75 26.6014 13.75H17.6028H17.5986ZM9.95 9.625C9.95 8.53098 10.3767 7.48177 11.1362 6.70818C11.8957 5.9346 12.9259 5.5 14 5.5C15.0741 5.5 16.1043 5.9346 16.8638 6.70818C17.6233 7.48177 18.05 8.53098 18.05 9.625C18.05 10.719 17.6233 11.7682 16.8638 12.5418C16.1043 13.3154 15.0741 13.75 14 13.75C12.9259 13.75 11.8957 13.3154 11.1362 12.5418C10.3767 11.7682 9.95 10.719 9.95 9.625ZM5.9 20.8527C5.9 17.6902 8.41859 15.125 11.5236 15.125H16.4722C19.5814 15.125 22.1 17.6902 22.1 20.8527C22.1 21.4844 21.598 22 20.9736 22H7.02219C6.40203 22 5.89578 21.4887 5.89578 20.8527H5.9Z" fill="black"/>
</svg>
