<svg width="119" height="119" viewBox="0 0 119 119" fill="none" xmlns="http://www.w3.org/2000/svg">
<g clip-path="url(#clip0_27_8179)">
<mask id="mask0_27_8179" style="mask-type:luminance" maskUnits="userSpaceOnUse" x="0" y="0" width="119" height="119">
<path d="M119 0H0V119H119V0Z" fill="white"/>
</mask>
<g mask="url(#mask0_27_8179)">
<path d="M18.668 64.55H100.997" stroke="#110E1F" stroke-width="0.412463" stroke-miterlimit="10" stroke-linecap="round"/>
<path d="M23.8381 64.5173C23.8381 64.5173 32.2804 31.3372 39.741 30.4537C47.2017 29.5702 51.2265 45.3749 57.6073 46.3566C63.9881 47.3382 67.522 35.951 74.3937 37.0308C81.2653 38.1106 91.8672 64.5173 91.8672 64.5173H23.8381Z" fill="#E6E6E6"/>
<path d="M66.2227 15.147C68.1529 15.173 70.2142 15.1628 71.8264 14.1013L65.2988 12.327C64.7364 12.1742 64.133 11.9947 63.7782 11.5325C63.5183 11.1946 63.4345 10.7567 63.2493 10.3725C62.5658 8.95429 60.752 8.5861 59.19 8.38975C58.6469 8.32168 58.0921 8.25385 57.5566 8.36666C57.0214 8.47924 56.4997 8.80744 56.3035 9.31819C56.226 9.52049 56.1993 9.74659 56.0736 9.92295C55.7164 10.4251 54.9474 10.1714 54.3517 10.0143C52.884 9.62735 51.3365 10.1924 49.9977 10.9076C48.659 11.6227 47.3747 12.5093 45.8927 12.8375C44.9067 13.056 43.8833 13.0143 42.8801 13.1295C41.8769 13.2447 40.834 13.5532 40.1636 14.3086C40.3568 14.1053 41.7563 14.6965 42.0723 14.7553C42.8118 14.8926 43.587 14.8426 44.3388 14.8529C46.1212 14.8767 47.9036 14.9007 49.686 14.9248C53.1848 14.9719 56.6834 15.0188 60.1822 15.0659C62.1957 15.093 64.2092 15.1202 66.2227 15.147Z" fill="#AEF1E2"/>
<path d="M96.1096 23.5938C97.7219 24.5672 99.6627 24.9858 101.533 24.7632C103.176 24.5676 104.727 23.9005 106.351 23.5836C108.176 23.2277 110.055 23.3203 111.912 23.4146C114.545 23.5483 117.178 23.6818 119.812 23.8153C120.866 23.8689 122.243 23.6949 122.474 22.6642C120.944 21.4662 118.778 21.5394 117.022 20.7058C115.672 20.0646 114.638 18.9248 113.487 17.9709C112.154 16.8663 110.567 15.972 108.841 15.8446C107.114 15.717 105.249 16.4994 104.459 18.0396C104.163 18.6164 103.986 19.3183 103.432 19.6552C102.89 19.9852 102.178 19.8288 101.617 19.5309C101.056 19.2329 100.564 18.8061 99.9736 18.5732C98.575 18.0219 97.0179 18.6688 95.6561 19.3059C94.0269 20.0683 92.3446 20.7715 90.7578 21.6142C92.9116 21.8555 94.2482 22.4769 96.1096 23.5938Z" fill="#CEDDEE"/>
<path d="M56.2214 97.1219C55.2989 97.0557 54.3223 97.2478 53.6113 97.8394C53.201 98.181 52.8826 98.6969 52.9568 99.2257C53.0258 99.7175 53.4143 100.106 53.8369 100.366C55.4242 101.344 57.4873 100.951 59.2721 101.489C60.7503 101.934 61.9573 102.99 63.3339 103.689C65.4498 104.763 67.9979 104.954 70.25 104.206C70.6185 104.083 70.994 103.927 71.2487 103.633C71.8044 102.993 71.5616 101.972 71.0606 101.289C70.2384 100.167 68.8793 99.5526 67.5182 99.2662C66.1571 98.9798 64.7544 98.975 63.3735 98.8088C62.0978 98.6555 60.839 98.3636 59.6259 97.9404C58.5681 97.5714 57.3467 97.2027 56.2214 97.1219Z" fill="#99BAE0"/>
<path d="M36.5914 101.809C36.3101 101.737 36.0179 101.689 35.7293 101.722C35.441 101.755 35.1546 101.877 34.9662 102.098C34.8195 102.271 34.7412 102.491 34.6067 102.674C34.3058 103.082 33.7777 103.242 33.2841 103.359C32.377 103.575 31.4542 103.735 30.5731 104.04C30.1998 104.169 29.8008 104.356 29.6447 104.719C29.5348 104.974 29.5713 105.276 29.6961 105.524C29.821 105.773 30.0255 105.973 30.2493 106.137C31.1433 106.794 32.4665 106.891 33.3549 106.227C33.7433 105.936 34.0359 105.524 34.4543 105.279C34.9209 105.007 35.4832 104.976 36.019 104.907C36.7105 104.819 37.3928 104.657 38.0497 104.423C38.3852 104.304 38.7314 104.153 38.9416 103.866C39.2304 103.472 39.1779 102.893 38.8974 102.493C38.6169 102.093 38.1498 101.854 37.672 101.751C37.1942 101.647 36.6998 101.664 36.2111 101.681L36.5914 101.809Z" fill="#B5CBE4"/>
<path d="M81.6311 100.417C81.2477 101.144 81.4905 102.081 82.3443 102.522C83.0673 102.896 84.0537 102.851 84.8595 102.592C85.6651 102.333 86.3376 101.889 87.0225 101.476C87.7074 101.064 88.4462 100.666 89.3017 100.526C90.2652 100.368 91.2862 100.554 92.2444 100.38C92.6024 100.314 92.953 100.195 93.2077 99.9934C93.4621 99.792 93.6077 99.4994 93.5263 99.2272C93.4404 98.9408 93.1205 98.7205 92.7638 98.6049C92.4071 98.4891 92.0132 98.4613 91.6267 98.4348C88.8877 98.2471 85.6399 97.9853 83.1858 99.1372C82.517 99.451 81.9293 99.852 81.6311 100.417Z" fill="#BAD4F3"/>
<path d="M93.4722 82.2954C93.4722 82.2954 93.7244 82.762 93.4246 83.1535C93.2729 83.3637 93.3141 83.9048 93.3141 83.9048C93.3141 83.9048 93.2107 84.2293 93.2795 84.4899C93.3484 84.7504 93.447 84.8192 93.4518 84.8389C93.4568 84.8586 93.5748 84.8831 93.5994 84.7997C93.6239 84.716 93.5897 84.5264 93.6193 84.438C93.6489 84.3495 93.7673 84.1421 93.7673 84.1421C93.7673 84.1421 93.9272 84.3775 93.9173 84.51C93.9075 84.6429 93.9164 84.7583 93.9164 84.7583L93.9298 85.2256C93.9298 85.2256 93.8133 85.5989 93.8186 85.7191C93.8236 85.8312 93.9819 85.8672 94.0483 85.8159C94.1481 85.7393 94.2379 85.3355 94.2836 85.1584C94.3296 84.9814 94.3754 84.6668 94.3754 84.6668C94.3754 84.6668 95.3419 84.725 95.3942 84.1283C95.2769 83.4911 95.1801 83.2056 95.1801 83.2056L94.9964 82.6039L94.8587 81.9971L93.4722 82.2954Z" fill="#FF855D"/>
<path d="M94.3515 85.0373C94.3515 85.0373 94.1599 85.7995 94.2541 85.8665C94.3478 85.9335 94.5131 85.9935 94.5667 85.7423C94.6206 85.491 94.7364 85.0515 94.7364 85.0515L94.7932 84.4106L94.3749 84.3215L94.3515 85.0373Z" fill="#FF855D"/>
<path d="M94.7538 84.8796C94.7538 84.8796 94.6362 85.6193 94.7338 85.6675C94.8317 85.7156 94.9988 85.7467 95.0284 85.5046C95.0579 85.2622 95.1304 84.8345 95.1304 84.8345L95.1142 84.3002L94.7641 84.4115L94.7538 84.8796Z" fill="#FF855D"/>
<path d="M95.1091 84.8299C95.1091 84.8299 95.0636 85.5643 95.1545 85.6059C95.2453 85.6475 95.3964 85.6683 95.4034 85.4283C95.4102 85.1884 95.4406 84.7636 95.4406 84.7636L95.401 84.1207L95.0391 84.3129L95.1091 84.8299Z" fill="#FF855D"/>
<path d="M82.821 100.4C82.821 100.4 82.7708 100.755 82.7982 100.883C82.8256 101.01 83.2361 101.326 84.1302 101.307C85.0245 101.289 85.467 101.088 85.6082 100.76C85.7497 100.432 85.6814 99.9113 85.6814 99.9113L85.4987 99.2911C85.4987 99.2911 85.6038 100.454 84.4678 100.609C83.3321 100.764 82.821 100.4 82.821 100.4Z" fill="#50E3C2"/>
<path d="M89.0755 96.5676C89.0755 96.5676 88.9522 96.6497 88.9338 96.8595C88.9156 97.0693 89.162 97.7676 89.2579 97.9318C89.34 98.5749 89.5679 99.0085 89.9921 99.2366C90.4164 99.4646 91.5435 99.4188 91.7443 99.259C91.9448 99.0995 91.8947 98.8261 91.8811 98.8077C91.8673 98.7895 91.0052 98.9535 90.508 98.8484C90.0107 98.7437 89.8097 98.5475 89.6455 98.2421C89.4812 97.9364 89.0755 96.5676 89.0755 96.5676Z" fill="#2BD8B1"/>
<path d="M86.2565 65.176C86.2565 65.176 86.0572 64.3869 85.5391 64.5682C85.0208 64.7495 85.1932 66.5369 85.6123 66.8146C86.0314 67.0925 86.2573 66.8838 86.2573 66.8838L86.2565 65.176Z" fill="#FF714F"/>
<path d="M91.2572 66.3335C91.2572 66.3335 91.8239 65.7217 92.1929 66.1084C92.5621 66.4949 91.525 68.0025 91.0164 68.0656C90.5079 68.1286 90.4114 67.8451 90.4114 67.8451L91.2572 66.3335Z" fill="#FF714F"/>
<path d="M77.8715 64.4423L77.5913 63.6974C77.5913 63.6974 77.1577 63.0851 76.9849 62.6323C76.8122 62.1799 77.1805 61.7514 77.4382 61.5885C77.6957 61.4258 78.4185 61.1179 78.5639 61.2992C78.7093 61.4806 78.8424 61.9272 78.8424 61.9272C78.8424 61.9272 79.1757 61.9327 79.2902 62.0974C79.4047 62.2623 79.5103 62.4377 79.4319 62.7293C79.3537 63.021 79.0156 63.3584 79.0156 63.3584L79.1825 64.0462L77.8715 64.4423Z" fill="#FF855D"/>
<path d="M89.0551 96.0156C89.0551 96.0156 89.0369 96.5241 89.0492 96.8873C89.0612 97.2506 89.3638 97.8681 89.3638 97.8681C89.3638 97.8681 89.5335 98.9093 90.2114 99.0908C90.8894 99.2725 91.9185 99.1031 91.8942 98.7882C91.8699 98.4735 91.3133 98.0012 91.0832 97.638C90.9135 97.1536 90.9135 96.2215 90.9135 96.2215L89.0551 96.0156Z" fill="#18CF86"/>
<path d="M83.4988 98.1718C83.4988 98.1718 83.6952 98.5178 83.7099 98.7911C83.7243 99.0643 83.4734 99.5025 83.4734 99.5025C83.4734 99.5025 82.5235 100.197 82.9026 100.629C83.282 101.061 84.7103 101.123 85.2823 100.791C85.854 100.459 85.5593 99.5563 85.5593 99.5563L85.39 98.428L83.4988 98.1718Z" fill="#13C778"/>
<path d="M83.1543 81.9759C83.1543 81.9759 82.6069 87.6045 82.7527 91.1279C82.8988 94.6511 83.3002 98.5793 83.3002 98.5793C83.3002 98.5793 84.7053 99.4517 85.7272 98.5062C85.6906 95.3699 87.0044 86.3535 87.0044 86.3535H87.2234L88.0811 90.5691C88.0811 90.5691 88.7406 95.3815 88.96 96.3266C89.9942 97.1431 91.091 96.9708 91.2165 95.7249C91.3419 94.4789 91.2925 90.5691 91.2925 90.5691V82.3626C91.2925 82.3626 86.3293 81.8899 83.1543 81.9759Z" fill="#153785"/>
<path d="M79.3465 63.7224L81.1974 68.1899C81.1974 68.1899 82.8798 69.4065 84.9687 69.5859C86.0125 69.8223 86.9985 69.7304 88.2173 69.9997C89.1142 70.1979 89.8429 70.3695 90.4144 70.5103C90.4249 70.513 90.4352 70.5154 90.4455 70.5178C91.4808 70.7735 92.331 71.5079 92.7407 72.4924L94.0412 75.5729C94.3723 76.3574 94.5882 77.1855 94.6823 78.0321L95.1975 82.6678C94.593 83.009 93.9543 82.9985 93.2956 82.7863L92.3965 77.659L91.4521 75.5378L91.4841 78.2245L91.6873 82.8988C91.6873 82.8988 85.0716 83.57 82.7633 82.0116C82.8498 80.345 83.2393 76.4925 83.2393 76.4925L83.4401 72.9139C83.4401 72.9139 79.9023 71.866 78.4829 70.0043C77.849 66.2444 77.6802 64.2106 77.6802 64.2106L79.3465 63.7224Z" fill="#4376CF"/>
<path d="M89.3036 68.6776C89.3036 68.6776 89.0266 69.7061 89.5471 70.5309C89.6645 70.7168 89.5953 70.9653 89.3956 71.0566C89.0571 71.2112 88.4514 71.3385 87.4562 71.1061C86.7229 70.9349 86.3574 70.7159 86.1805 70.5184C86.0226 70.3424 86.0914 70.059 86.306 69.9583C86.5425 69.8471 86.8624 69.5055 86.8698 68.4717C87.8317 68.5871 89.3036 68.6776 89.3036 68.6776Z" fill="#C76841"/>
<path d="M91.5586 66.1623C91.1194 67.8354 89.2772 69.8924 87.7626 69.5421C86.248 69.1913 85.6347 66.5661 86.0739 64.8927C86.5132 63.2198 88.097 62.1475 89.6114 62.4981C91.126 62.8485 91.9979 64.489 91.5586 66.1623Z" fill="#FF855D"/>
<path d="M90.7794 63.1333C90.7794 63.1333 90.1586 64.1789 89.9789 64.8325C89.7339 65.0449 87.1522 64.6201 87.1522 64.6201L87.1194 63.4931C87.1194 63.4931 86.8744 64.2279 86.8579 64.6039C85.8614 64.7018 85.453 64.3425 85.453 64.3425C85.453 64.3425 85.3659 62.5016 86.575 61.4232C87.6749 60.4422 89.7991 60.4812 90.8775 61.0203C91.9557 61.5596 92.8051 63.166 92.6255 64.4241C92.4458 65.6821 91.9393 66.1726 91.9393 66.1726L91.3183 65.8781L91.4109 64.5058L91.0952 65.6497L90.4961 65.3226C90.4961 65.3226 90.8882 64.2444 90.7794 63.1333Z" fill="#060206"/>
<path d="M86.7513 64.0966C86.7513 64.0966 86.5868 64.9315 86.402 65.1502C86.2172 65.3692 86.053 65.6635 86.053 65.8415C86.053 66.0193 85.7999 65.9372 85.7999 65.9372C85.7999 65.9372 85.7931 64.8629 85.9094 64.3429C86.409 63.9939 86.7513 64.0966 86.7513 64.0966Z" fill="#060206"/>
<path d="M91.2511 64.8903C91.2511 64.8903 91.088 65.7252 91.1764 65.9979C91.2647 66.2705 91.3061 66.6048 91.2388 66.7695C91.1718 66.9344 91.4374 66.9539 91.4374 66.9539C91.4374 66.9539 91.8487 65.9615 91.9373 65.436C91.6063 64.9243 91.2511 64.8903 91.2511 64.8903Z" fill="#060206"/>
<path d="M83.7546 99.5732C84.1897 99.49 84.6441 99.5088 85.0706 99.6279" stroke="#110E1F" stroke-width="0.460015" stroke-miterlimit="10" stroke-linecap="round"/>
<path d="M83.7888 99.3475C84.2239 99.2642 84.6783 99.2831 85.1048 99.4022" stroke="#110E1F" stroke-width="0.460015" stroke-miterlimit="10" stroke-linecap="round"/>
<path d="M83.9944 99.1497C84.3023 99.1099 84.6176 99.1267 84.9197 99.1979" stroke="#110E1F" stroke-width="0.460015" stroke-miterlimit="10" stroke-linecap="round"/>
<path d="M89.8865 97.7113C90.1957 97.5915 90.5388 97.5606 90.8644 97.623" stroke="#110E1F" stroke-width="0.460015" stroke-miterlimit="10" stroke-linecap="round"/>
<path d="M89.8181 97.4102C90.1273 97.2905 90.4704 97.2596 90.796 97.322" stroke="#110E1F" stroke-width="0.460015" stroke-miterlimit="10" stroke-linecap="round"/>
<path d="M89.8181 97.1505C90.1045 97.0476 90.4238 97.0389 90.7154 97.126" stroke="#110E1F" stroke-width="0.460015" stroke-miterlimit="10" stroke-linecap="round"/>
<path d="M83.4401 72.9137L83.5554 72.0068L82.05 72.3764C82.05 72.3764 82.8576 72.7322 83.4401 72.9137Z" fill="#4376CF"/>
<path d="M84.5681 69.6255C84.5681 69.6255 83.6648 69.913 83.5144 71.7744" stroke="#3361B4" stroke-width="0.460015" stroke-miterlimit="10" stroke-linecap="round"/>
<path d="M91.1445 70.8845C91.1445 70.8845 91.6302 72.1983 91.5617 73.1975C91.5617 73.1975 91.5481 74.1417 91.4522 75.5376" stroke="#3361B4" stroke-width="0.460015" stroke-miterlimit="10" stroke-linecap="round"/>
<path d="M84.7258 69.7693C84.7258 69.7693 85.5264 69.872 85.9369 70.084C85.9369 70.084 85.5082 70.4786 86.083 71.0352C86.6578 71.5918 88.66 71.7729 89.1759 71.6008C90.0244 71.3181 89.7689 70.7753 89.8691 70.7067C90.2434 70.7981 91.0211 71.0078 91.0211 71.0078" stroke="#3361B4" stroke-width="0.460015" stroke-miterlimit="10" stroke-linecap="round"/>
<path d="M89.6321 83.3521C89.6321 83.3521 89.6457 84.9258 91.1511 85.3502C91.0827 86.9513 91.1648 90.8929 91.1648 90.8929L91.1237 95.3817" stroke="#153785" stroke-width="0.460015" stroke-miterlimit="10" stroke-linecap="round"/>
<path d="M84.2124 82.8868C84.2124 82.8868 84.4861 84.365 83.0628 84.8759C82.8986 88.197 82.8618 88.9813 82.8618 90.2222C82.8618 91.4631 83.3913 98.2876 83.3913 98.2876" stroke="#153785" stroke-width="0.460015" stroke-miterlimit="10" stroke-linecap="round"/>
<path d="M86.7944 83.7077L87.4513 83.8172L87.4056 84.8393L87.4421 86.1895L86.8492 86.1621" stroke="#153785" stroke-width="0.460015" stroke-miterlimit="10" stroke-linecap="round"/>
<path d="M86.9359 86.1575C86.9359 86.1575 86.5663 88.4842 86.5251 89.0864" stroke="#153785" stroke-width="0.460015" stroke-miterlimit="10" stroke-linecap="round"/>
<path d="M36.66 100.368C37.0196 100.406 37.2114 100.327 37.3134 100.24C37.3099 100.167 37.3084 100.093 37.3108 100.03C37.3191 99.8 37.5285 99.4648 37.5285 99.4648L36.0036 99.0814L35.9532 99.6369C35.9532 99.6369 35.9184 99.712 35.8796 99.8228C35.9852 100.028 36.2116 100.32 36.66 100.368Z" fill="#D5D7E4"/>
<path d="M38.202 101.861C38.1659 101.688 38.0967 101.497 37.9642 101.438C37.6627 101.055 37.3443 100.634 37.3443 100.634C37.3443 100.634 37.3222 100.436 37.3134 100.24C37.2114 100.327 37.0196 100.406 36.66 100.368C36.2116 100.32 35.9852 100.028 35.8796 99.8226C35.8124 100.014 35.7336 100.312 35.8026 100.518C35.9116 100.844 36.0204 100.93 36.0204 100.93C36.0204 100.93 35.9869 101.601 36.1544 101.86C36.322 102.118 36.5146 102.281 36.9754 102.406C37.2622 102.483 37.6822 102.376 37.9583 102.283C38.1339 102.224 38.2399 102.042 38.202 101.861Z" fill="#58669D"/>
<path d="M32.08 102.932C32.4884 102.895 32.7268 102.753 32.8578 102.641C32.839 102.582 32.8041 102.449 32.7744 102.185L31.3887 101.999C31.3887 101.999 31.4535 102.272 31.3887 102.717C31.3876 102.725 31.3861 102.731 31.385 102.738C31.514 102.855 31.7303 102.963 32.08 102.932Z" fill="#D5D7E4"/>
<path d="M33.029 104.112C32.9782 103.84 32.9775 103.562 33.0152 103.288C33.0242 103.223 33.0226 103.148 33.0021 103.064C32.9263 102.754 32.8722 102.68 32.8722 102.68C32.8722 102.68 32.8665 102.667 32.858 102.641C32.727 102.753 32.4888 102.894 32.0802 102.931C31.7307 102.963 31.5142 102.855 31.3852 102.738C31.3182 103.168 31.1616 103.373 31.1616 103.373C31.1616 103.373 30.9072 103.565 30.7533 103.91C30.6282 104.191 30.7285 104.528 30.9873 104.694C31.1513 104.799 31.3854 104.901 31.7137 104.958C32.5689 105.107 33.0456 104.574 33.0564 104.364C33.0594 104.304 33.0476 104.212 33.029 104.112Z" fill="#58669D"/>
<path d="M41.0223 64.3484L41.1355 63.6149C41.1355 63.6149 41.4138 62.9735 41.4847 62.5277C41.5557 62.0817 41.1381 61.7613 40.8718 61.6619C40.6056 61.5627 39.8871 61.4204 39.789 61.6135C39.6912 61.8066 39.6553 62.2395 39.6553 62.2395C39.6553 62.2395 39.3524 62.3085 39.2795 62.4806C39.2064 62.6527 39.1435 62.8329 39.271 63.0841C39.3982 63.335 39.7715 63.5783 39.7715 63.5783L39.7505 64.2378L41.0223 64.3484Z" fill="#ECA589"/>
<path d="M23.3782 85.8405L22.831 86.5593C22.831 86.5593 21.9271 87.0616 21.7372 87.3408C21.5474 87.6198 20.6371 88.1055 20.7996 88.345C20.9618 88.5848 21.7593 87.5861 21.8933 87.6866C21.8933 87.6866 20.8359 88.5576 21.0562 88.747C21.2767 88.9366 22.005 87.9211 22.1167 87.9546C22.2284 87.9881 21.4195 89.0021 21.6814 89.1714C21.9433 89.3406 22.3619 88.1444 22.5518 88.1779C22.7416 88.2112 22.007 89.3527 22.2507 89.4727C22.4944 89.5927 22.8868 88.4008 23.0878 88.3115C23.2888 88.2224 23.7127 87.9655 23.7127 87.9655C23.7127 87.9655 23.6683 88.3343 23.8246 88.5574C23.9807 88.7807 24.3714 88.948 24.4942 88.814C24.3269 88.5016 24.1706 88.2447 24.1706 88.1221C24.1706 87.9993 24.3493 87.4969 24.2041 87.1175C24.3379 86.6375 24.6059 86.4809 24.6059 86.4809L23.3782 85.8405Z" fill="#FD927E"/>
<path d="M30.9481 88.3196C30.9481 88.3196 30.8933 89.9526 30.8616 91.6242C31.9582 91.8831 33.0878 92.0492 34.2026 92.074L34.7255 88.6601L30.9481 88.3196Z" fill="#4E70B3"/>
<path d="M30.8751 94.9696C30.6592 97.338 31.1105 102.337 31.1105 102.337C31.1105 102.337 32.1292 102.773 32.9888 102.404C33.367 100.246 33.8005 94.6963 33.8005 94.6963L34.2023 92.0742C33.0876 92.0495 31.9582 91.8833 30.8616 91.6245C30.8349 93.025 30.8241 94.4526 30.8751 94.9696Z" fill="#5F80BB"/>
<path d="M38.7531 88.0143L35.3657 88.5223C35.3657 88.5223 35.4415 90.2855 35.6983 92.0166C36.7842 91.903 37.8328 91.624 38.7978 91.132L38.7531 88.0143Z" fill="#4E70B3"/>
<path d="M35.6982 92.0166C35.8134 92.7938 35.9652 93.5645 36.1629 94.1662C35.8712 95.396 35.7852 99.5044 35.7852 99.5044C35.7852 99.5044 36.6862 100.573 37.6587 99.8114C38.0902 98.2261 38.8369 93.8774 38.8369 93.8774L38.7977 91.132C37.8327 91.624 36.7841 91.9028 35.6982 92.0166Z" fill="#5F80BB"/>
<path d="M32.5726 65.6799C32.5726 65.6799 31.0217 64.859 29.361 66.1362C27.7006 67.4135 27.3903 68.8184 27.8283 70.3877C28.2662 71.9568 28.7589 73.6177 28.9415 74.676C29.1239 75.7342 27.5911 80.8984 28.3028 82.0114C29.0144 83.1244 32.9011 83.5987 34.5433 82.5767C36.1856 81.555 36.6235 80.5881 36.6235 80.5881C36.6235 80.5881 38.6124 80.1683 38.3934 78.5079C38.1745 76.8475 35.8937 73.9278 35.6563 72.5958C35.4192 71.2638 35.5287 68.1615 35.1273 67.0848C34.7257 66.0084 33.7404 65.2054 32.5726 65.6799Z" fill="#212120"/>
<path d="M34.7499 73.3472C34.7499 73.3472 32.213 73.8047 30.8819 74.4077C29.551 75.011 29.863 77.7767 30.0918 79.0868C30.3204 80.3969 30.6741 81.4784 30.6741 81.4784L28.9646 90.2539C28.9646 90.2539 31.4632 91.4808 34.9709 91.2522C38.4785 91.0236 40.7849 89.6717 40.7849 89.6717L38.1395 80.3761C38.1395 80.3761 38.41 72.7858 34.7499 73.3472Z" fill="#90ACE6"/>
<path d="M34.1968 73.2713C33.9857 73.0547 33.8753 72.381 33.8753 72.381L32.0413 72.6135C32.0413 72.6135 32.2467 73.2569 32.2396 73.6195C32.2385 73.6856 32.2121 73.7548 32.1764 73.8233C32.9036 73.9606 33.6518 73.8174 34.1968 73.2713Z" fill="#E47E67"/>
<path d="M35.0285 73.5805C35.0285 73.5805 34.4535 73.4804 34.2245 73.2978C34.2148 73.2904 34.2059 73.2805 34.1969 73.2713C33.6519 73.8174 32.9039 73.9606 32.1767 73.8231C32.0392 74.0872 31.7153 74.3379 31.7153 74.3379C31.7153 74.3379 32.799 74.8398 34.0285 74.5205C35.2578 74.201 35.0285 73.5805 35.0285 73.5805Z" fill="#FD927E"/>
<path d="M39.3701 64.083C39.3701 64.083 41.2861 64.0283 41.3408 64.2746C41.3955 64.5209 41.2313 65.0136 41.2313 65.0136C41.2313 65.0136 41.3682 68.7634 41.2861 70.0499C41.2039 71.3363 39.2059 73.9273 38.6858 74.639C38.6858 74.639 38.7953 76.6462 39.1238 78.2064C39.4522 79.7665 40.5197 85.2315 40.0817 86.3263C39.7077 87.2611 38.4962 87.2182 37.4005 87.1689C37.0893 87.1547 36.8384 86.9108 36.8174 86.6C36.6525 84.1794 36.137 78.5237 35.7843 76.482C35.6087 75.4658 35.5106 74.7813 35.4558 74.3379C35.4011 73.8938 35.1059 73.5159 34.6895 73.3525C34.9544 72.9661 35.3639 72.866 35.839 72.8964L36.4138 72.7048C36.4138 72.7048 38.7132 70.6246 39.1511 69.7214C39.3975 66.6832 39.4612 64.7307 39.4612 64.7307C39.4612 64.7307 39.2606 64.457 39.3701 64.083Z" fill="#17E4A0"/>
<path d="M31.2407 74.1553C31.2407 74.1553 31.3903 74.2245 31.6532 74.3766C31.8897 74.5133 32.0522 74.7491 32.0942 75.0189C32.292 76.2869 32.4735 78.7796 32.7095 80.8248C32.9832 83.1971 32.664 85.6968 32.6092 87.3391C31.5144 87.8683 28.7865 87.4122 28.8229 86.4816C28.8594 85.551 29.7535 81.6277 29.7171 81.0622C29.6806 80.4963 28.9871 77.814 29.1513 76.0623C29.3155 74.3105 31.2407 74.1553 31.2407 74.1553Z" fill="#14D394"/>
<path d="M29.6529 74.8395C29.6529 74.8395 26.4656 78.8247 25.9672 79.7847C25.4691 80.7449 23.0295 86.0399 23.0295 86.0399C23.0295 86.0399 23.8502 86.884 24.4949 86.8549C25.2275 85.9821 27.6014 82.6654 27.953 82.0545C28.803 81.0074 30.825 78.3599 30.825 78.3599C30.825 78.3599 31.3527 75.8869 29.6529 74.8395Z" fill="#16D186"/>
<path d="M29.9759 70.1941C29.9759 70.1941 29.3864 69.8694 29.134 70.0857C28.8813 70.3023 29.7834 72.2511 30.6615 71.878C30.0961 70.4225 29.9759 70.1941 29.9759 70.1941Z" fill="#FD7967"/>
<path d="M31.3471 66.5492C29.2198 67.3272 29.6389 69.7972 30.1922 71.2647C30.7456 72.7322 32.8387 73.7905 33.8249 73.2853C34.8113 72.7802 35.7976 71.144 35.5571 69.9174C35.3165 68.6903 34.5707 65.3705 31.3471 66.5492Z" fill="#FD927E"/>
<path d="M33.0061 66.1266C33.0061 66.1266 33.4988 67.0299 32.7462 67.9469C31.9934 68.8637 30.433 69.4251 30.3645 69.6577C30.2962 69.8902 30.3919 70.5883 30.3919 70.5883L30.0908 70.6978C30.0908 70.6978 29.6667 70.0818 29.4889 69.1924C29.3108 68.3029 29.9542 65.8393 33.0061 66.1266Z" fill="#212120"/>
<path d="M32.8716 66.0936C32.8716 66.0936 32.9025 66.9708 33.4102 67.5707C33.918 68.1709 34.9645 68.5097 35.303 68.4943C35.0722 67.1094 34.2565 65.8934 32.8716 66.0936Z" fill="#212120"/>
<path d="M31.5142 103.304C31.8446 103.241 32.1923 103.274 32.5052 103.397" stroke="#001A5D" stroke-width="0.460015" stroke-miterlimit="10" stroke-linecap="round"/>
<path d="M36.4993 100.947C36.7795 100.817 37.097 100.769 37.4032 100.809" stroke="#001A5D" stroke-width="0.422294" stroke-miterlimit="10" stroke-linecap="round"/>
<path d="M36.6497 101.166C36.9299 101.036 37.2474 100.988 37.5536 101.028" stroke="#001A5D" stroke-width="0.422294" stroke-miterlimit="10" stroke-linecap="round"/>
<path d="M31.4595 103.605C31.7899 103.542 32.1376 103.575 32.4505 103.698" stroke="#001A5D" stroke-width="0.460015" stroke-miterlimit="10" stroke-linecap="round"/>
<path d="M31.9876 102.95C31.9399 102.898 31.8891 102.847 31.8267 102.814C31.7641 102.781 31.6872 102.769 31.6226 102.798C31.558 102.826 31.5129 102.902 31.5333 102.97C31.5508 103.028 31.6106 103.065 31.6708 103.073C31.731 103.08 31.7912 103.061 31.8468 103.037C31.9276 103.002 32.0029 102.955 32.0833 102.919C32.1639 102.883 32.2523 102.858 32.3395 102.87C32.3793 102.876 32.419 102.89 32.449 102.916C32.479 102.943 32.4978 102.984 32.4915 103.024C32.4847 103.066 32.4499 103.101 32.41 103.117C32.3702 103.133 32.3255 103.134 32.2823 103.131C32.149 103.121 32.0218 103.072 31.897 103.023" stroke="#001A5D" stroke-width="0.460015" stroke-miterlimit="10" stroke-linecap="round"/>
<path d="M36.606 100.254C36.5493 100.254 36.4897 100.28 36.4628 100.33C36.4205 100.408 36.4775 100.512 36.5602 100.544C36.6428 100.576 36.7374 100.552 36.816 100.511C36.8944 100.47 36.9636 100.412 37.042 100.371C37.0759 100.353 37.1123 100.338 37.1506 100.337C37.1889 100.336 37.2296 100.35 37.252 100.381C37.2863 100.429 37.2636 100.503 37.2143 100.536C37.1105 100.604 36.9774 100.527 36.9187 100.437C36.8543 100.339 36.7282 100.254 36.606 100.254Z" stroke="#001A5D" stroke-width="0.460015" stroke-miterlimit="10" stroke-linecap="round"/>
<path d="M29.5256 80.0584L30.4199 79.2191L29.708 80.8066L29.5256 80.0584Z" fill="#13E280"/>
<path d="M38.6855 74.639L38.7129 73.7631L39.5546 73.4346L38.6855 74.639Z" fill="#24CF97"/>
<path d="M36.5847 72.7134C37.1772 72.702 37.7717 72.7909 38.3351 72.9744" stroke="#AA5249" stroke-width="0.230007" stroke-miterlimit="10" stroke-linecap="round"/>
<path d="M35.9214 72.9338C36.3887 73.3328 36.6374 73.9733 36.5625 74.5831" stroke="#AA5249" stroke-width="0.230007" stroke-miterlimit="10" stroke-linecap="round"/>
<path d="M36.1128 74.5111C36.1128 74.5111 36.5328 76.7921 36.9889 80.4232C37.445 84.0544 37.4997 86.6822 37.4997 86.6822" stroke="#AA5249" stroke-width="0.230007" stroke-miterlimit="10" stroke-linecap="round"/>
<path d="M31.5688 75.0405C31.5688 75.0405 32.1165 78.6535 32.2625 80.6242C32.4084 82.5949 32.0617 86.9742 32.0617 86.9742" stroke="#AA5249" stroke-width="0.230007" stroke-miterlimit="10" stroke-linecap="round"/>
<path d="M56.7323 94.4008C56.9714 94.1619 57.1411 93.7916 57.2142 93.3986C57.062 93.2284 56.9289 93.1284 56.9289 93.1284L56.6489 92.1759L56.694 92.1288C56.6072 92.0333 56.5225 91.9365 56.4386 91.8389L53.9895 92.3024C53.9694 92.3799 53.9512 92.459 53.9385 92.5347L53.9952 92.5413L54.0018 93.3272C54.0018 93.3272 54.3024 93.7467 54.3486 94.1742C54.3517 94.2031 54.3541 94.2361 54.3556 94.2718C55.0105 94.8911 56.0627 94.9031 56.7323 94.4008Z" fill="#FF8D71"/>
<path d="M65.0529 99.802C65.933 100.154 67.2358 99.9384 67.7136 98.9312C67.6889 98.8876 67.6645 98.8451 67.6416 98.8046C67.3286 98.2568 67.485 97.3021 67.485 97.3021L64.2136 97.5057C64.4199 97.9909 64.56 98.4978 64.4013 99.1022C64.4013 99.1022 64.3741 99.2029 64.347 99.3674C64.5392 99.5734 64.8252 99.6881 65.0529 99.802Z" fill="#FF8D71"/>
<path d="M51.1099 78.0962L51.2877 59.5644L67.9605 59.9842L68.4772 63.2726C68.4772 63.2726 68.6439 73.5187 68.7023 80.2412C68.7306 83.4833 68.2506 97.696 68.2506 97.696C68.2506 97.696 68.2447 98.5465 66.3121 98.6892C64.3795 98.8318 63.547 97.8512 63.547 97.8512L61.7714 80.8224L60.0713 67.4314C59.8799 67.4301 59.7698 67.4389 59.5786 67.4496C59.3025 70.181 58.1532 76.2731 58.1192 78.1611C58.0651 81.1572 57.4787 92.5524 57.4787 92.5524C57.4787 92.5524 57.0772 93.1154 55.9285 93.4831C54.7795 93.8505 53.3381 93.7598 53.0828 92.7173C52.8277 91.6753 51.1099 78.0962 51.1099 78.0962Z" fill="#232055"/>
<path d="M79.4895 61.8616C79.246 61.3906 78.2755 60.6235 77.7495 60.2346C77.6852 60.1871 77.6287 60.1339 77.5788 60.0776C76.9882 60.578 76.3425 60.9931 75.6411 61.2393C75.7118 61.3638 75.7856 61.4725 75.8594 61.5458C76.208 61.892 77.286 62.1313 77.5216 62.2441C77.7572 62.3569 78.0776 62.7431 78.0776 62.7431L77.7717 63.1578C77.7717 63.1578 77.674 62.4307 77.2937 62.4521C76.9131 62.4736 76.8082 62.5986 76.8778 62.9341C76.9477 63.27 77.2076 64.0642 77.6696 64.2496C78.1321 64.4355 79.1564 63.7615 79.4159 63.148C79.6754 62.5347 79.7332 62.3328 79.4895 61.8616Z" fill="#FF8D71"/>
<path d="M77.2159 59.0936L75.1587 60.0834C75.1587 60.0834 75.3774 60.7762 75.6411 61.2395C76.3424 60.9934 76.9882 60.578 77.5787 60.0777C77.2218 59.673 77.2159 59.0936 77.2159 59.0936Z" fill="#D26E62"/>
<path d="M67.9997 49.1442C67.9997 49.1442 69.4862 36.0843 68.4104 34.8235C66.3303 34.1119 63.8121 33.6376 63.8121 33.6376C63.8121 33.6376 63.1971 33.3378 59.7203 33.3032C59.7203 33.3023 59.7201 33.2999 59.7201 33.2999C59.6399 33.2999 59.5664 33.301 59.488 33.3015C59.4091 33.301 59.3332 33.2999 59.253 33.2999C59.253 33.2999 59.2519 33.3026 59.2515 33.3034C58.2388 33.3137 57.318 33.3685 56.5238 33.4401C54.579 33.9295 53.8583 34.146 51.9833 35.0904L51.7979 35.4202C50.7221 36.681 51.7665 49.1442 51.7665 49.1442L50.8125 60.6798C50.8125 60.6798 54.346 62.1605 59.5723 62.2737V62.2815C59.6785 62.2815 59.7827 62.2798 59.8876 62.2785C59.9925 62.2798 60.0967 62.2815 60.2029 62.2815V62.2737C65.4292 62.1605 68.7207 61.428 68.7207 61.428L67.9997 49.1442Z" fill="#183682"/>
<path d="M56.4583 33.6556C56.4583 33.6556 55.619 33.5645 55.1993 34.1303C54.7795 34.6959 56.5131 37.0498 60.1626 37.0316C63.8119 37.0132 64.8704 34.623 64.3593 34.0755C63.8485 33.5281 58.8304 33.2724 56.4583 33.6556Z" fill="#183682"/>
<path d="M68.3922 34.8233C68.3922 34.8233 69.5363 35.5991 70.2453 36.9611C70.9541 38.3228 73.8755 47.7518 73.8755 47.7518L77.8984 58.7312C78.5043 59.5631 75.1574 61.2572 74.5515 60.4254L69.4745 50.1285L65.7646 41.4471C65.7646 41.4471 65.5095 35.8581 68.3922 34.8233Z" fill="#183682"/>
<path d="M75.9902 61.3518C75.9902 61.3518 76.1899 62.0845 76.4091 62.3056C76.6281 62.527 76.7273 63.1701 76.86 63.3615C76.9922 63.5526 77.5291 63.4653 77.4683 63.1318C77.4076 62.7981 77.4825 62.3284 77.3653 61.6811C77.2484 61.0339 77.0524 60.9119 77.0524 60.9119C77.0524 60.9119 76.2974 60.6561 75.9902 61.3518Z" fill="#FF8D71"/>
<path d="M40.9638 59.6938C40.892 59.7768 40.8074 59.8534 40.7065 59.9171C40.137 60.2751 39.0828 60.987 38.7967 61.4514C38.5102 61.9159 38.554 62.1274 38.7728 62.7764C38.9915 63.4254 39.9902 64.1958 40.4785 64.0409C40.9668 63.8861 41.2949 63.0917 41.3923 62.753C41.4895 62.414 41.3916 62.2778 41.0032 62.2264C40.6145 62.1749 40.4582 62.913 40.4582 62.913L40.1766 62.4642C40.1766 62.4642 40.5348 62.0928 40.7853 61.9954C41.0356 61.8979 42.1593 61.7354 42.5436 61.4074C42.654 61.3133 42.7692 61.1534 42.8778 60.9745C42.1004 60.7891 41.4035 60.3813 40.9638 59.6938Z" fill="#FF8D71"/>
<path d="M41.3416 58.788C41.3416 58.788 41.2965 59.3093 40.9636 59.6936C41.4035 60.3812 42.1005 60.7891 42.8776 60.9746C43.1474 60.5294 43.3749 59.9618 43.3749 59.9618L41.3416 58.788Z" fill="#D26E62"/>
<path d="M51.9763 35.0961C51.9763 35.0961 50.6886 35.7806 49.8563 37.1227C49.0242 38.4645 45.6418 47.4141 45.6418 47.4141L40.6695 58.3642C39.9841 59.1705 43.2859 61.1659 43.9713 60.3597L49.9719 50.1908L54.1049 42.3505C54.1049 42.3505 54.8529 36.3797 51.9763 35.0961Z" fill="#183682"/>
<path d="M42.4248 61.1985C42.4248 61.1985 42.1631 61.9347 41.9214 62.1449C41.6798 62.3549 41.5283 63.0068 41.3777 63.1925C41.227 63.3786 40.6831 63.2476 40.7713 62.9102C40.8596 62.5728 40.8189 62.0851 40.9888 61.4304C41.1587 60.7755 41.3691 60.6656 41.3691 60.6656C41.3691 60.6656 42.1633 60.4615 42.4248 61.1985Z" fill="#FF8D71"/>
<path d="M63.8532 34.0871C63.8532 34.0871 62.5394 33.5842 62.2611 32.6702C61.9826 31.7565 61.6955 29.0025 61.6955 29.0025L59.7704 30.558L57.8209 30.1065C57.8209 30.1065 57.5763 31.9025 57.2978 32.8163C57.0193 33.73 55.6875 34.0871 55.6875 34.0871C55.6875 34.0871 57.03 36.2479 59.7406 36.2799V36.2827C59.7509 36.2827 59.7601 36.2814 59.7704 36.2814C59.7804 36.2814 59.7896 36.2827 59.7997 36.2827V36.2799C62.5105 36.2479 63.8532 34.0871 63.8532 34.0871Z" fill="#C7745F"/>
<path d="M54.4468 24.5457C54.4468 24.5457 54.3235 25.5036 54.3509 26.2153C54.3783 26.9269 55.049 27.9537 55.049 27.9537L55.3089 27.2554L55.569 24.8741L54.4468 24.5457Z" fill="#000203"/>
<path d="M62.3247 26.5174C62.8106 28.9841 60.8469 32.8167 58.8112 33.2176C56.7752 33.6185 55.4384 30.4365 54.9525 27.9698C54.4667 25.5032 55.7231 23.1784 57.7588 22.7773C59.7946 22.3763 61.8386 24.0508 62.3247 26.5174Z" fill="#FF8D71"/>
<path d="M62.1196 26.6269C62.1196 26.6269 62.431 25.4927 63.1096 25.7938C63.7884 26.0951 63.454 28.6839 62.8801 29.0579C62.3062 29.4319 62.0176 29.1118 62.0176 29.1118L62.1196 26.6269Z" fill="#FF8D71"/>
<path d="M53.9494 23.3551C53.9494 23.3551 53.6117 24.4681 55.3908 25.3122C55.727 25.4714 56.7868 24.8879 57.2247 24.8193C57.6626 24.751 58.4702 25.3532 59.2501 25.4626C60.0303 25.5721 60.304 25.4626 60.304 25.4626C60.304 25.4626 60.4956 26.5165 60.9198 26.7491C61.3441 26.9816 61.6452 27.0502 61.6452 27.0502L61.8642 28.0355L62.3978 27.926L62.4663 26.2017C62.4663 26.2017 62.9178 25.2575 62.6715 24.4499C62.4252 23.6424 61.7273 23.273 61.7273 23.273C61.7273 23.273 61.7821 21.9592 60.6187 21.4118C59.4555 20.8643 56.8781 21.9456 56.0022 21.6581C55.1263 21.3706 53.7852 21.8771 53.9494 23.3551Z" fill="#000203"/>
<path d="M53.7121 97.8587C53.7851 98.3148 54.7614 99.3733 55.8197 99.1999C56.878 99.0265 57.0696 97.5942 57.0969 96.9736C57.1243 96.3533 57.1882 95.6417 57.3343 94.8297C57.4405 94.2381 57.3485 93.7253 57.2905 93.4899C57.2651 93.4581 57.2393 93.4266 57.2141 93.3986C57.1412 93.7916 56.971 94.1619 56.7321 94.4008C56.0623 94.9031 55.0104 94.891 54.3557 94.2718C54.3791 94.7654 54.2747 95.8532 54.2747 95.8532C54.2747 95.8532 54.1779 96.0071 54.0542 96.2351C54.0864 96.7183 53.6419 97.4192 53.7121 97.8587Z" fill="#1E3B7B"/>
<path d="M57.4196 93.6653C57.3782 93.6009 57.3346 93.5437 57.2908 93.4899C57.3489 93.7253 57.4408 94.2381 57.3344 94.8297C57.1886 95.6417 57.1246 96.3533 57.0973 96.9736C57.0699 97.5942 56.8783 99.0265 55.82 99.1999C54.7615 99.3733 53.7852 98.3148 53.7122 97.8587C53.642 97.4195 54.0867 96.7183 54.0543 96.2351C53.8174 96.6715 53.5658 97.5075 53.6028 97.9682C53.636 98.3836 54.3519 99.3267 55.3228 99.46C55.9917 99.5518 56.6639 99.0494 56.9238 98.6936C57.5124 97.888 57.2144 95.9482 57.3887 95.3789C57.563 94.8098 57.6324 93.9961 57.4196 93.6653Z" fill="#110E1F"/>
<path d="M68.8711 104.017C68.4194 104.332 67.5711 104.346 66.5172 103.401C65.6059 102.585 64.5621 100.49 64.2962 99.9382C64.2912 100.226 64.3171 100.557 64.4171 100.887C64.6832 101.763 66.3171 103.774 66.8958 104.072C68.6533 104.977 69.4901 103.939 69.5237 102.972C69.4124 103.522 69.1803 103.802 68.8711 104.017Z" fill="#110E1F"/>
<path d="M64.2319 99.8018C64.2319 99.8018 64.2547 99.8519 64.2963 99.938C64.2972 99.9016 64.2972 99.8644 64.2989 99.8296L64.2319 99.8018Z" fill="#1E3B7B"/>
<path d="M69.5236 102.831C69.5102 102.548 69.4189 102.22 69.2965 101.895C68.9851 101.068 68.4651 100.258 68.4651 100.258C68.4651 100.258 68.0271 99.4812 67.7136 98.9312C67.2358 99.9384 65.9329 100.154 65.0529 99.8018C64.8252 99.6879 64.5392 99.5734 64.347 99.3673C64.327 99.4897 64.3073 99.6489 64.299 99.8298C64.2973 99.8646 64.2973 99.9014 64.2964 99.9377C64.5622 100.49 65.6058 102.585 66.5174 103.401C67.571 104.346 68.4195 104.332 68.8713 104.017C69.1804 103.801 69.4123 103.522 69.5238 102.972C69.5253 102.924 69.5258 102.878 69.5236 102.831Z" fill="#1E3B7B"/>
<path d="M67.6703 100.222C67.2035 100.409 66.7145 100.541 66.2168 100.614" stroke="#110E1F" stroke-width="0.92003" stroke-miterlimit="10" stroke-linecap="round"/>
<path d="M68.0054 100.578C67.5958 100.984 67.049 101.248 66.4771 101.317" stroke="#110E1F" stroke-width="0.92003" stroke-miterlimit="10" stroke-linecap="round"/>
<path d="M65.7337 99.7034C65.6908 99.6693 65.6492 99.6303 65.6266 99.5804C65.6039 99.5302 65.6039 99.4667 65.6389 99.4245C65.6656 99.3923 65.7077 99.3774 65.7484 99.3684C65.917 99.3312 66.1018 99.377 66.2332 99.4889C66.365 99.6005 66.4405 99.7755 66.4311 99.9478C66.4793 99.8204 66.501 99.6842 66.548 99.5563C66.5951 99.4282 66.6748 99.3034 66.7992 99.2476C66.9238 99.1919 67.0963 99.2335 67.1476 99.3599C67.1988 99.4862 67.1141 99.627 67.0144 99.7201C66.6385 100.071 66.1228 100.013 65.7337 99.7034Z" stroke="#110E1F" stroke-width="0.92003" stroke-linecap="round" stroke-linejoin="round"/>
<path d="M54.8623 95.2957C55.0114 95.4238 55.2223 95.4448 55.4187 95.4544C55.7426 95.47 56.0671 95.4695 56.3907 95.4533" stroke="#110E1F" stroke-width="0.92003" stroke-linecap="round" stroke-linejoin="round"/>
<path d="M54.761 96.0526C54.932 96.2057 55.1832 96.2177 55.4126 96.2217C55.7385 96.2276 56.0647 96.2333 56.3905 96.2392" stroke="#110E1F" stroke-width="0.92003" stroke-linecap="round" stroke-linejoin="round"/>
<path d="M55.0741 94.5761C54.9984 94.637 54.9789 94.7644 55.0479 94.833C55.1019 94.8864 55.1873 94.8903 55.2631 94.8838C55.3772 94.8739 55.4897 94.8481 55.5968 94.8071C55.6093 94.8829 55.6636 94.9475 55.7295 94.9874C55.7952 95.0272 55.872 95.0452 55.948 95.0565C56.0137 95.0664 56.0823 95.0714 56.1453 95.0506C56.2084 95.0298 56.2651 94.9782 56.2738 94.9122C56.2813 94.8566 56.2533 94.8004 56.211 94.7631C56.169 94.7261 56.1147 94.7055 56.0601 94.6924C55.9553 94.6677 55.8488 94.6712 55.7439 94.6935C55.6651 94.7106 55.6088 94.7288 55.5361 94.6854C55.3967 94.6022 55.2438 94.4395 55.0741 94.5761Z" stroke="#110E1F" stroke-width="0.92003" stroke-linecap="round" stroke-linejoin="round"/>
<path d="M63.8923 62.4289C64.2304 63.1983 64.7248 65.2875 67.4985 65.242C67.5349 69.0008 68.1867 80.1703 68.1867 80.1703L67.8997 97.2841" stroke="#232055" stroke-width="0.92003" stroke-miterlimit="10" stroke-linecap="round"/>
<path d="M67.1819 61.9822C67.3025 62.7359 67.5025 64.1588 67.5025 65.3149" stroke="#232055" stroke-width="0.92003" stroke-miterlimit="10" stroke-linecap="round"/>
<path d="M67.1819 61.982V61.983" stroke="#232055" stroke-width="0.92003" stroke-miterlimit="10" stroke-linecap="round"/>
<path d="M51.5318 61.1543C51.5318 61.1543 51.4908 63.9873 51.4087 65.4242" stroke="#232055" stroke-width="0.92003" stroke-miterlimit="10" stroke-linecap="round"/>
<path d="M54.1319 61.8931C54.1319 61.8931 54.0224 65.1503 51.404 65.205C51.2397 68.1063 51.2579 77.6864 51.2579 77.6864" stroke="#232055" stroke-width="0.92003" stroke-miterlimit="10" stroke-linecap="round"/>
<path d="M60.1946 63.125L59.1819 63.1524L59.3871 65.342L59.4009 66.9296L60.181 67.0252V63.3028L60.2629 67.2442L60.9336 74.785" stroke="#232055" stroke-width="0.92003" stroke-miterlimit="10" stroke-linecap="round"/>
<path d="M51.2578 39.3395C51.2578 39.3395 50.9841 41.4197 51.3125 43.2535C51.641 45.0874 51.7781 48.1258 51.7781 48.1258" stroke="#183682" stroke-width="0.92003" stroke-miterlimit="10" stroke-linecap="round"/>
<path d="M68.1552 39.0021C68.1552 39.0021 68.4836 40.17 68.447 42.6518C68.4105 45.1334 68.082 48.0529 68.082 48.0529" stroke="#183682" stroke-width="0.92003" stroke-miterlimit="10" stroke-linecap="round"/>
<path d="M53.1375 92.0652C53.1375 92.0652 53.338 93.0143 55.0714 92.85C56.8049 92.6858 57.2247 92.12 57.2247 92.12" stroke="#232055" stroke-width="0.92003" stroke-miterlimit="10" stroke-linecap="round"/>
<path d="M63.7393 97.3524C63.7393 97.3524 64.6016 98.1876 65.9016 98.119C67.2018 98.0507 67.6942 97.5166 67.6942 97.5166" stroke="#232055" stroke-width="0.92003" stroke-miterlimit="10" stroke-linecap="round"/>
<path d="M59.1683 67.1486C59.1683 67.1486 58.3016 74.8398 57.9185 77.8688" stroke="#232055" stroke-width="0.92003" stroke-miterlimit="10" stroke-linecap="round"/>
<path d="M56.9895 48.0678C58.9981 47.793 61.0474 47.8177 63.0488 48.1411" stroke="#183682" stroke-width="0.92003" stroke-miterlimit="10" stroke-linecap="round"/>
<path d="M59.5083 48.5131C61.3579 48.3279 63.2441 48.514 65.0219 49.057" stroke="#183682" stroke-width="0.92003" stroke-miterlimit="10" stroke-linecap="round"/>
<path d="M77.4338 62.1988L77.9902 62.1714C77.9902 62.1714 78.223 62.5911 78.5287 62.6321C78.191 62.8009 77.826 63.2754 77.826 63.2754L77.7717 63.1576L78.0774 62.7429C78.0774 62.7429 77.6618 62.2627 77.4338 62.1988Z" fill="#D26E62"/>
<path d="M40.8755 61.9527L40.8619 61.6516C40.8619 61.6516 40.2867 61.7797 39.8306 62.1903C40.036 62.441 40.4375 62.9518 40.4375 62.9518L40.4581 62.9135L40.1765 62.4644C40.1765 62.4644 40.5424 62.1353 40.8755 61.9527Z" fill="#D26E62"/>
</g>
</g>
<defs>
<clipPath id="clip0_27_8179">
<rect width="119" height="119" fill="white"/>
</clipPath>
</defs>
</svg>
