<svg width="22" height="21" viewBox="0 0 22 21" fill="none" xmlns="http://www.w3.org/2000/svg">
<path d="M11.4928 6.11971C12.0361 5.60149 12.7727 5.3105 13.5407 5.31076C14.3088 5.31102 15.0452 5.60251 15.5881 6.1211C16.1309 6.63969 16.4358 7.3429 16.4355 8.07604C16.4352 8.80918 16.1299 9.51219 15.5866 10.0304C15.3176 10.287 14.9983 10.4905 14.6469 10.6293C14.2956 10.7681 13.919 10.8395 13.5387 10.8394C12.7707 10.8391 12.0342 10.5476 11.4914 10.029C10.9485 9.51044 10.6437 8.80723 10.6439 8.07409C10.6442 7.34095 10.9495 6.63794 11.4928 6.11971ZM14.5621 7.09912C14.4291 6.96591 14.2696 6.85942 14.0928 6.78592C13.9161 6.71241 13.7258 6.67338 13.533 6.6711C13.3403 6.66882 13.149 6.70335 12.9704 6.77265C12.7919 6.84195 12.6296 6.94464 12.4932 7.07466C12.3568 7.20468 12.249 7.35943 12.1762 7.52979C12.1033 7.70016 12.0669 7.8827 12.069 8.0667C12.0711 8.25071 12.1117 8.43245 12.1885 8.60125C12.2652 8.77004 12.3765 8.92249 12.5159 9.04963C12.789 9.29875 13.1533 9.43601 13.531 9.43206C13.9087 9.4281 14.2698 9.28325 14.537 9.02847C14.8043 8.77369 14.9566 8.4292 14.9613 8.06866C14.9659 7.70812 14.8227 7.36014 14.5621 7.09912ZM12.9332 17.2943C12.5279 17.4779 12.0729 17.5372 11.6308 17.4642C11.1887 17.3911 10.7811 17.1892 10.4639 16.8863L9.57994 16.0438L8.52062 17.7315C8.46408 17.8218 8.38668 17.8987 8.29432 17.9562C8.20195 18.0137 8.09706 18.0503 7.98763 18.0632C7.8782 18.0762 7.76712 18.0651 7.66285 18.0309C7.55858 17.9966 7.46387 17.9401 7.38594 17.8657L3.28488 13.9494C3.20708 13.8751 3.14803 13.7849 3.11222 13.6856C3.0764 13.5862 3.06475 13.4804 3.07816 13.3762C3.09157 13.2719 3.12968 13.1719 3.1896 13.0838C3.24952 12.9957 3.32968 12.9218 3.424 12.8676L5.19195 11.855L4.30797 11.0112C3.99112 10.7084 3.7801 10.3195 3.70382 9.89775C3.62755 9.476 3.68976 9.04206 3.88192 8.65538L2.25889 7.10604C2.12305 6.97633 2.04674 6.80043 2.04674 6.61703C2.04674 6.43362 2.12305 6.25772 2.25889 6.12801L3.79497 4.66167C4.43035 4.05499 5.2469 3.65095 6.13248 3.50506C7.01807 3.35917 7.92925 3.47858 8.74089 3.84689L10.0987 2.5507C11.2762 1.42666 12.7535 0.631725 14.3705 0.252049C15.9875 -0.127627 17.6825 -0.077556 19.2718 0.396835C19.8151 0.559072 20.3091 0.844525 20.7116 1.22877C21.1142 1.61302 21.4132 2.08463 21.5832 2.60326C22.5976 5.69503 21.7281 9.069 19.3283 11.3598L17.969 12.6574C18.3546 13.4322 18.4796 14.302 18.3268 15.1473C18.174 15.9926 17.7508 16.7721 17.1155 17.3787L15.5794 18.8451C15.4435 18.9747 15.2592 19.0476 15.0671 19.0476C14.875 19.0476 14.6907 18.9747 14.5548 18.8451L12.9318 17.2957L12.9332 17.2943ZM18.8399 1.71792C17.5031 1.31847 16.0772 1.27605 14.7169 1.59526C13.3566 1.91447 12.1138 2.58313 11.1233 3.52872L9.94223 4.65614L9.94657 4.66167L8.92203 5.6397L8.91768 5.63416L5.84261 8.56961L5.84696 8.57514L5.2644 9.13263C5.16105 9.26579 5.11123 9.42996 5.12399 9.59524C5.13676 9.76052 5.21127 9.91593 5.33396 10.0332L11.4885 15.9082C11.6116 16.0259 11.7751 16.0972 11.9489 16.1091C12.1227 16.1211 12.2952 16.0728 12.4347 15.9732L13.0158 15.4185L13.0216 15.4241L16.0967 12.4886L16.0909 12.4831L17.1155 11.5051L17.1213 11.5106L18.3023 10.3818C19.2931 9.43642 19.9939 8.25012 20.3285 6.95157C20.6632 5.65301 20.619 4.29177 20.2007 3.0155C20.1004 2.71023 19.924 2.43273 19.6868 2.20674C19.4496 1.98076 19.1585 1.81303 18.8385 1.71792H18.8399ZM14.0462 16.4021L15.0678 17.3773L16.0909 16.3993C16.4507 16.0564 16.7097 15.6292 16.8419 15.1606C16.9742 14.692 16.9751 14.1985 16.8445 13.7295L14.0462 16.4021ZM7.61491 4.92036C7.12379 4.79595 6.60704 4.79692 6.11644 4.92317C5.62583 5.04942 5.17859 5.29651 4.81952 5.6397L3.79642 6.61772L4.81807 7.59159L7.61491 4.92174V4.92036ZM8.52497 15.0353L6.24982 12.8635L4.96588 13.5967L7.75547 16.261L8.52352 15.0353H8.52497ZM4.31522 17.8574C4.38704 17.7942 4.44474 17.7178 4.48484 17.6327C4.52494 17.5477 4.54662 17.4558 4.54857 17.3626C4.55053 17.2694 4.53271 17.1767 4.49621 17.0903C4.4597 17.0038 4.40525 16.9252 4.33613 16.8593C4.26702 16.7935 4.18466 16.7416 4.09401 16.7069C4.00336 16.6721 3.90628 16.6553 3.80863 16.6573C3.71097 16.6593 3.61475 16.6801 3.52574 16.7185C3.43673 16.7569 3.35677 16.8121 3.29067 16.8807L0.728596 19.3265C0.659392 19.3903 0.604193 19.4666 0.566219 19.551C0.528245 19.6354 0.508257 19.7261 0.507421 19.818C0.506585 19.9098 0.524917 20.0009 0.561349 20.0859C0.597781 20.1709 0.651583 20.2481 0.719615 20.3131C0.787647 20.378 0.868546 20.4294 0.957593 20.4641C1.04664 20.4989 1.14205 20.5164 1.23826 20.5156C1.33447 20.5148 1.42954 20.4957 1.51795 20.4595C1.60635 20.4232 1.6863 20.3705 1.75314 20.3045L4.31522 17.8587V17.8574ZM2.26468 14.9233C2.40052 15.053 2.47683 15.2289 2.47683 15.4123C2.47683 15.5957 2.40052 15.7716 2.26468 15.9013L1.23724 16.8821C1.10119 17.0118 0.916735 17.0846 0.724461 17.0845C0.532186 17.0843 0.34784 17.0113 0.211978 16.8814C0.0761149 16.7515 -0.000135698 16.5755 1.81293e-07 16.3919C0.000136061 16.2084 0.0766473 16.0324 0.212702 15.9027L1.24014 14.9233C1.37602 14.7936 1.56028 14.7208 1.75241 14.7208C1.94454 14.7208 2.12881 14.7936 2.26468 14.9233ZM6.36575 19.8162C6.49247 19.6849 6.56113 19.512 6.55739 19.3336C6.55365 19.1551 6.4778 18.985 6.34568 18.8587C6.21356 18.7324 6.03542 18.6597 5.84849 18.6559C5.66156 18.6521 5.48032 18.7174 5.34266 18.8381L4.31377 19.8189C4.1779 19.9488 4.10165 20.1249 4.10179 20.3084C4.10193 20.492 4.17844 20.668 4.31449 20.7976C4.45055 20.9273 4.635 21.0001 4.82727 21C5.01955 20.9999 5.2039 20.9268 5.33976 20.797L6.3672 19.8162H6.36575Z" fill="#2D1E03"/>
</svg>
