<svg width="25" height="26" viewBox="0 0 25 26" fill="none" xmlns="http://www.w3.org/2000/svg">
<path d="M24.2139 8.35693C24.3701 8.78174 24.2383 9.25537 23.9014 9.55811L21.7871 11.4819C21.8408 11.8872 21.8701 12.3022 21.8701 12.7222C21.8701 13.1421 21.8408 13.5571 21.7871 13.9624L23.9014 15.8862C24.2383 16.189 24.3701 16.6626 24.2139 17.0874C23.999 17.6685 23.7402 18.2251 23.4424 18.7622L23.2129 19.1577C22.8906 19.6948 22.5293 20.2026 22.1338 20.6812C21.8457 21.0327 21.3672 21.1499 20.9375 21.0132L18.2178 20.1489C17.5635 20.6519 16.8408 21.0718 16.0693 21.3892L15.459 24.1772C15.3613 24.6216 15.0195 24.9731 14.5703 25.0464C13.8965 25.1587 13.2031 25.2173 12.4951 25.2173C11.7871 25.2173 11.0938 25.1587 10.4199 25.0464C9.9707 24.9731 9.62891 24.6216 9.53125 24.1772L8.9209 21.3892C8.14942 21.0718 7.42676 20.6519 6.77246 20.1489L4.05762 21.0181C3.62793 21.1548 3.14942 21.0327 2.86133 20.686C2.46582 20.2075 2.10449 19.6997 1.78223 19.1626L1.55274 18.7671C1.25488 18.23 0.996095 17.6733 0.781251 17.0923C0.625001 16.6675 0.756837 16.1938 1.09375 15.8911L3.20801 13.9673C3.1543 13.5571 3.125 13.1421 3.125 12.7222C3.125 12.3022 3.1543 11.8872 3.20801 11.4819L1.09375 9.55811C0.756837 9.25537 0.625001 8.78174 0.781251 8.35693C0.996095 7.77588 1.25488 7.21924 1.55274 6.68213L1.78223 6.28662C2.10449 5.74951 2.46582 5.2417 2.86133 4.76318C3.14942 4.41162 3.62793 4.29443 4.05762 4.43115L6.77734 5.29541C7.43164 4.79248 8.1543 4.37256 8.92578 4.05518L9.53613 1.26709C9.63379 0.822754 9.97559 0.471191 10.4248 0.397949C11.0986 0.280762 11.792 0.222168 12.5 0.222168C13.208 0.222168 13.9014 0.280762 14.5752 0.393066C15.0244 0.466309 15.3662 0.817871 15.4639 1.26221L16.0742 4.05029C16.8457 4.36768 17.5684 4.7876 18.2227 5.29053L20.9424 4.42627C21.3721 4.28955 21.8506 4.41162 22.1387 4.7583C22.5342 5.23682 22.8955 5.74463 23.2178 6.28174L23.4473 6.67725C23.7451 7.21436 24.0039 7.771 24.2188 8.35205L24.2139 8.35693ZM12.5 16.6284C13.536 16.6284 14.5296 16.2169 15.2621 15.4843C15.9947 14.7517 16.4063 13.7582 16.4063 12.7222C16.4063 11.6862 15.9947 10.6926 15.2621 9.96003C14.5296 9.22747 13.536 8.81592 12.5 8.81592C11.464 8.81592 10.4704 9.22747 9.73787 9.96003C9.0053 10.6926 8.59375 11.6862 8.59375 12.7222C8.59375 13.7582 9.0053 14.7517 9.73787 15.4843C10.4704 16.2169 11.464 16.6284 12.5 16.6284Z" fill="black"/>
</svg>
