<svg width="250" height="250" viewBox="0 0 250 250" fill="none" xmlns="http://www.w3.org/2000/svg">
<mask id="mask0_8_171" style="mask-type:luminance" maskUnits="userSpaceOnUse" x="0" y="0" width="250" height="250">
<path d="M250 0H0V250H250V0Z" fill="white"/>
</mask>
<g mask="url(#mask0_8_171)">
<path d="M186.887 57.81L118.244 37.2166C117.283 36.9278 116.259 36.9278 115.298 37.2166L46.6524 57.81C44.4854 58.4603 43 60.4565 43 62.7201V138.229C43 148.05 46.9759 158.103 54.8172 168.111C60.8058 175.753 69.091 183.428 79.4426 190.921C96.8316 203.508 113.956 211.23 114.676 211.552C115.342 211.851 116.057 212 116.771 212C117.485 212 118.2 211.851 118.866 211.552C119.585 211.23 136.709 203.508 154.099 190.921C164.45 183.428 172.735 175.753 178.724 168.111C186.565 158.104 190.541 148.05 190.541 138.229V62.7201C190.541 60.4565 189.057 58.4603 186.887 57.81Z" fill="#A0B424"/>
<path d="M137.241 108.987H93.1605C87.2035 108.987 82.3289 113.862 82.3289 119.818V148.551C82.3289 154.508 87.2035 159.383 93.1605 159.383H137.241C143.198 159.383 148.073 154.508 148.073 148.551V119.818C148.073 113.862 143.198 108.987 137.241 108.987ZM115.201 143.152C110.885 143.152 107.385 139.652 107.385 135.335C107.385 131.018 110.885 127.519 115.201 127.519C119.519 127.519 123.017 131.018 123.017 135.335C123.017 139.652 119.519 143.152 115.201 143.152Z" fill="#33383D"/>
<path d="M97.329 112.14C95.6061 111.742 94.2974 110.224 94.241 108.374L93.9319 98.33C93.5772 86.7432 102.716 77.0282 114.303 76.6728C125.89 76.3181 135.606 85.4554 135.96 97.0422L136.247 106.435C136.315 108.638 134.584 110.479 132.381 110.546C130.18 110.614 128.338 108.883 128.271 106.68L127.983 97.2868C127.762 90.0984 121.736 84.4289 114.548 84.6488C107.359 84.8694 101.689 90.8972 101.909 98.0855L102.218 108.13C102.286 110.332 100.554 112.173 98.3513 112.24C97.9998 112.251 97.6567 112.216 97.329 112.14Z" fill="#616161"/>
</g>
</svg>
