<svg width="25" height="26" viewBox="0 0 25 26" fill="none" xmlns="http://www.w3.org/2000/svg">
<path d="M3.66211 3.88428L2.00195 2.22412C1.26465 1.48682 0 2.00928 0 3.04932V8.42529C0 9.07471 0.522461 9.59717 1.17188 9.59717H6.54785C7.59277 9.59717 8.11523 8.33252 7.37793 7.59521L5.87402 6.09131C7.56836 4.39697 9.91211 3.34717 12.5 3.34717C17.6758 3.34717 21.875 7.54639 21.875 12.7222C21.875 17.8979 17.6758 22.0972 12.5 22.0972C10.5078 22.0972 8.66211 21.4771 7.14355 20.4175C6.43555 19.9243 5.46387 20.0952 4.96582 20.8032C4.46777 21.5112 4.64355 22.4829 5.35156 22.981C7.38281 24.3921 9.84863 25.2222 12.5 25.2222C19.4043 25.2222 25 19.6265 25 12.7222C25 5.81787 19.4043 0.222168 12.5 0.222168C9.04785 0.222168 5.92285 1.62354 3.66211 3.88428ZM12.5 6.47217C11.8506 6.47217 11.3281 6.99463 11.3281 7.64404V12.7222C11.3281 13.0347 11.4502 13.3325 11.6699 13.5522L15.1855 17.0679C15.6445 17.5269 16.3867 17.5269 16.8408 17.0679C17.2949 16.6089 17.2998 15.8667 16.8408 15.4126L13.667 12.2388V7.64404C13.667 6.99463 13.1445 6.47217 12.4951 6.47217H12.5Z" fill="black"/>
</svg>
