<svg width="179" height="159" viewBox="0 0 179 159" fill="none" xmlns="http://www.w3.org/2000/svg">
<path d="M92.7364 150.364H24.7088C14.9403 150.364 8.83455 139.999 13.7192 131.707L47.7326 73.9631L81.7467 16.2191C86.6313 7.92698 98.8414 7.92698 103.726 16.2191L137.74 73.9631L171.754 131.707C176.639 139.999 170.532 150.364 160.764 150.364H92.7364Z" fill="#A0B424"/>
<path d="M96.8177 67.6283C96.0229 50.3433 89.4663 51.2693 89.4663 51.2693C89.4663 51.2693 82.9097 50.3433 82.1149 67.6283C81.6967 76.7209 83.753 87.2654 85.7958 95.2184C87.1191 100.37 91.8135 100.37 93.1368 95.2184C95.1796 87.2654 97.2359 76.7209 96.8177 67.6283Z" fill="black"/>
<path d="M89.4667 106.832C94.2133 106.832 98.0615 110.602 98.0615 115.253C98.0615 119.903 94.2133 123.674 89.4667 123.674C84.72 123.674 80.8718 119.903 80.8718 115.253C80.8718 110.602 84.72 106.832 89.4667 106.832Z" fill="black"/>
<path d="M89.2474 149.497L21.291 149.565C11.5327 149.575 5.45993 139.203 10.3607 130.895L44.4867 73.0439L78.6134 15.1924C83.5142 6.88483 95.7115 6.87253 100.57 15.1702L134.4 72.9532L168.231 130.736C173.089 139.034 166.962 149.418 157.204 149.428L89.2474 149.497Z" stroke="black" stroke-width="16.94"/>
</svg>
